<svg width="154" height="185" viewBox="0 0 154 185" fill="none" xmlns="http://www.w3.org/2000/svg">
<circle cx="116.965" cy="46.3401" r="32.9875" transform="rotate(-119.206 116.965 46.3401)" fill="#FFB800" fill-opacity="0.6"/>
<circle cx="20.4399" cy="109.507" r="20.3" transform="rotate(-119.206 20.4399 109.507)" fill="#FFB800"/>
<circle cx="58.8597" cy="151.276" r="32.9875" transform="rotate(-119.206 58.8597 151.276)" fill="#FFB800" fill-opacity="0.6"/>
<rect x="8.99981" y="28.9999" width="145" height="145" rx="72.5" fill="#FFB800"/>
<path d="M79.6118 84.2319C79.9958 83.9119 80.3798 83.5679 80.7638 83.1999C81.1638 82.8319 81.5478 82.4479 81.9158 82.0479C82.2838 81.6799 82.5958 81.2799 82.8518 80.8479C83.1238 80.4159 83.2678 79.9359 83.2838 79.4079C83.3158 78.5599 83.0918 77.9279 82.6118 77.5119C82.1318 77.0959 81.4918 76.8959 80.6918 76.9119C79.9718 76.9279 79.3878 77.0959 78.9398 77.4159C78.5078 77.7359 78.2518 78.1999 78.1718 78.8079H74.9318C74.9638 77.8639 75.1878 77.0479 75.6038 76.3599C76.0358 75.6559 76.6038 75.0959 77.3078 74.6799C77.8198 74.3759 78.3798 74.1599 78.9878 74.0319C79.5958 73.8879 80.2358 73.8159 80.9078 73.8159C82.7158 73.7839 84.1398 74.2639 85.1798 75.2559C85.6278 75.6719 85.9878 76.1919 86.2598 76.8159C86.5318 77.4239 86.6678 78.1439 86.6678 78.9759C86.6678 79.5839 86.6038 80.1599 86.4758 80.7039C86.3478 81.2479 86.1318 81.7519 85.8278 82.2159C85.6358 82.5359 85.4278 82.8319 85.2038 83.1039C84.9958 83.3599 84.7798 83.5999 84.5558 83.8239C84.3478 84.0479 84.1158 84.2719 83.8598 84.4959C83.6198 84.7199 83.3478 84.9679 83.0438 85.2399C82.4518 85.7519 81.8838 86.2239 81.3398 86.6559C80.8118 87.0879 80.3078 87.5119 79.8278 87.9279H86.4758V90.9999H75.0518V88.1679L79.6118 84.2319Z" fill="white" fill-opacity="0.7"/>
<path d="M26.7506 113V105.622H28.3326V108.632H29.4666L31.3566 105.622H33.1766L30.8386 109.136L33.3586 113H31.5106L29.5646 110.018H28.3326V113H26.7506ZM37.4378 105.496C38.0258 105.496 38.5438 105.589 38.9918 105.776C39.4398 105.963 39.8178 106.224 40.1258 106.56C40.4431 106.887 40.6811 107.283 40.8398 107.75C40.9984 108.217 41.0778 108.735 41.0778 109.304C41.0778 109.883 40.9984 110.405 40.8398 110.872C40.6904 111.329 40.4618 111.726 40.1538 112.062C39.8458 112.398 39.4631 112.655 39.0058 112.832C38.5578 113.009 38.0351 113.098 37.4378 113.098C36.8498 113.098 36.3318 113.009 35.8838 112.832C35.4358 112.645 35.0578 112.389 34.7498 112.062C34.4511 111.726 34.2224 111.325 34.0638 110.858C33.9144 110.391 33.8398 109.873 33.8398 109.304C33.8398 108.735 33.9144 108.217 34.0638 107.75C34.2224 107.283 34.4558 106.887 34.7638 106.56C35.0718 106.224 35.4498 105.963 35.8978 105.776C36.3458 105.589 36.8591 105.496 37.4378 105.496ZM37.4378 111.712C37.8018 111.712 38.1098 111.651 38.3618 111.53C38.6231 111.399 38.8331 111.227 38.9918 111.012C39.1598 110.797 39.2811 110.545 39.3558 110.256C39.4398 109.967 39.4818 109.654 39.4818 109.318C39.4818 108.982 39.4398 108.669 39.3558 108.38C39.2811 108.081 39.1598 107.825 38.9918 107.61C38.8331 107.395 38.6231 107.227 38.3618 107.106C38.1098 106.985 37.8018 106.924 37.4378 106.924C37.0831 106.924 36.7751 106.985 36.5138 107.106C36.2618 107.227 36.0518 107.395 35.8838 107.61C35.7251 107.825 35.6038 108.081 35.5198 108.38C35.4451 108.669 35.4078 108.982 35.4078 109.318C35.4078 109.654 35.4451 109.967 35.5198 110.256C35.6038 110.545 35.7251 110.797 35.8838 111.012C36.0518 111.227 36.2618 111.399 36.5138 111.53C36.7751 111.651 37.0831 111.712 37.4378 111.712ZM44.124 115.87H42.528V105.622H44.04L44.124 106.672C44.3946 106.289 44.7446 106 45.174 105.804C45.6126 105.599 46.07 105.496 46.546 105.496C47.05 105.496 47.5026 105.589 47.904 105.776C48.3053 105.953 48.646 106.205 48.926 106.532C49.2153 106.859 49.43 107.255 49.57 107.722C49.7193 108.179 49.794 108.702 49.794 109.29C49.794 109.841 49.724 110.349 49.584 110.816C49.444 111.283 49.234 111.689 48.954 112.034C48.6833 112.37 48.3426 112.631 47.932 112.818C47.5306 113.005 47.0406 113.098 46.462 113.098C46.014 113.098 45.5846 113.028 45.174 112.888C44.7726 112.739 44.4226 112.496 44.124 112.16V115.87ZM46.21 111.712C46.5553 111.712 46.854 111.651 47.106 111.53C47.358 111.399 47.5633 111.227 47.722 111.012C47.89 110.797 48.0113 110.545 48.086 110.256C48.17 109.967 48.212 109.654 48.212 109.318C48.212 108.982 48.17 108.669 48.086 108.38C48.0113 108.081 47.89 107.825 47.722 107.61C47.5633 107.395 47.3533 107.227 47.092 107.106C46.84 106.985 46.5366 106.924 46.182 106.924C45.8646 106.924 45.5706 106.989 45.3 107.12C45.0386 107.251 44.8193 107.423 44.642 107.638C44.4646 107.853 44.3293 108.109 44.236 108.408C44.152 108.697 44.11 108.996 44.11 109.304C44.11 109.64 44.152 109.957 44.236 110.256C44.32 110.545 44.446 110.797 44.614 111.012C44.7913 111.217 45.0106 111.385 45.272 111.516C45.5333 111.647 45.846 111.712 46.21 111.712ZM54.5139 105.496C55.1019 105.496 55.6199 105.589 56.0679 105.776C56.5159 105.963 56.8939 106.224 57.2019 106.56C57.5193 106.887 57.7573 107.283 57.9159 107.75C58.0746 108.217 58.1539 108.735 58.1539 109.304C58.1539 109.883 58.0746 110.405 57.9159 110.872C57.7666 111.329 57.5379 111.726 57.2299 112.062C56.9219 112.398 56.5393 112.655 56.0819 112.832C55.6339 113.009 55.1113 113.098 54.5139 113.098C53.9259 113.098 53.4079 113.009 52.9599 112.832C52.5119 112.645 52.1339 112.389 51.8259 112.062C51.5273 111.726 51.2986 111.325 51.1399 110.858C50.9906 110.391 50.9159 109.873 50.9159 109.304C50.9159 108.735 50.9906 108.217 51.1399 107.75C51.2986 107.283 51.5319 106.887 51.8399 106.56C52.1479 106.224 52.5259 105.963 52.9739 105.776C53.4219 105.589 53.9353 105.496 54.5139 105.496ZM54.5139 111.712C54.8779 111.712 55.1859 111.651 55.4379 111.53C55.6993 111.399 55.9093 111.227 56.0679 111.012C56.2359 110.797 56.3573 110.545 56.4319 110.256C56.5159 109.967 56.5579 109.654 56.5579 109.318C56.5579 108.982 56.5159 108.669 56.4319 108.38C56.3573 108.081 56.2359 107.825 56.0679 107.61C55.9093 107.395 55.6993 107.227 55.4379 107.106C55.1859 106.985 54.8779 106.924 54.5139 106.924C54.1593 106.924 53.8513 106.985 53.5899 107.106C53.3379 107.227 53.1279 107.395 52.9599 107.61C52.8013 107.825 52.6799 108.081 52.5959 108.38C52.5213 108.669 52.4839 108.982 52.4839 109.318C52.4839 109.654 52.5213 109.967 52.5959 110.256C52.6799 110.545 52.8013 110.797 52.9599 111.012C53.1279 111.227 53.3379 111.399 53.5899 111.53C53.8513 111.651 54.1593 111.712 54.5139 111.712ZM65.3581 105.622V107.008H62.8661V113H61.2841V107.008H58.7921V105.622H65.3581ZM66.276 113V105.622H67.858V108.632H68.992L70.882 105.622H72.702L70.364 109.136L72.884 113H71.036L69.09 110.018H67.858V113H66.276ZM75.2659 113H73.7819V105.622H75.3779V110.69L79.1299 105.622H80.5719V113H78.9759V108.03C78.9665 108.049 77.7299 109.705 75.2659 113ZM83.6291 109.85C83.6478 110.121 83.7038 110.373 83.7971 110.606C83.8904 110.839 84.0164 111.045 84.1751 111.222C84.3338 111.39 84.5298 111.525 84.7631 111.628C85.0058 111.731 85.2858 111.782 85.6031 111.782C85.9391 111.782 86.2471 111.721 86.5271 111.6C86.8164 111.479 87.0264 111.269 87.1571 110.97H88.7951C88.7018 111.343 88.5478 111.665 88.3331 111.936C88.1278 112.207 87.8804 112.431 87.5911 112.608C87.3111 112.776 86.9984 112.902 86.6531 112.986C86.3171 113.061 85.9578 113.098 85.5751 113.098C84.9871 113.098 84.4691 113.009 84.0211 112.832C83.5824 112.655 83.2138 112.398 82.9151 112.062C82.6164 111.726 82.3924 111.329 82.2431 110.872C82.1031 110.405 82.0331 109.883 82.0331 109.304C82.0331 108.744 82.1124 108.235 82.2711 107.778C82.4298 107.311 82.6584 106.91 82.9571 106.574C83.2651 106.238 83.6338 105.977 84.0631 105.79C84.4924 105.594 84.9824 105.496 85.5331 105.496C86.1118 105.496 86.6111 105.594 87.0311 105.79C87.4511 105.977 87.8011 106.233 88.0811 106.56C88.3704 106.887 88.5851 107.269 88.7251 107.708C88.8651 108.147 88.9351 108.623 88.9351 109.136C88.9351 109.379 88.9211 109.617 88.8931 109.85H83.6291ZM87.3811 108.646C87.3531 108.067 87.1711 107.629 86.8351 107.33C86.5084 107.031 86.0791 106.882 85.5471 106.882C85.2484 106.882 84.9871 106.929 84.7631 107.022C84.5391 107.115 84.3478 107.241 84.1891 107.4C84.0398 107.559 83.9184 107.745 83.8251 107.96C83.7318 108.175 83.6711 108.403 83.6431 108.646H87.3811ZM97.401 113.098C96.813 113.098 96.295 113.009 95.847 112.832C95.4083 112.645 95.0396 112.389 94.741 112.062C94.4516 111.726 94.2323 111.329 94.083 110.872C93.943 110.405 93.873 109.892 93.873 109.332C93.873 108.772 93.9476 108.259 94.097 107.792C94.2556 107.325 94.489 106.924 94.797 106.588C95.105 106.252 95.4783 105.986 95.917 105.79C96.3556 105.594 96.8643 105.496 97.443 105.496C97.8536 105.496 98.2316 105.543 98.577 105.636C98.9316 105.72 99.2443 105.865 99.515 106.07C99.7856 106.266 100.019 106.518 100.215 106.826C100.411 107.125 100.546 107.489 100.621 107.918H98.969C98.885 107.601 98.703 107.358 98.423 107.19C98.1523 107.013 97.8163 106.924 97.415 106.924C97.0603 106.924 96.757 106.989 96.505 107.12C96.253 107.251 96.0476 107.428 95.889 107.652C95.7303 107.876 95.6136 108.137 95.539 108.436C95.4736 108.725 95.441 109.029 95.441 109.346C95.441 109.673 95.4783 109.981 95.553 110.27C95.6276 110.559 95.7443 110.811 95.903 111.026C96.071 111.231 96.281 111.399 96.533 111.53C96.785 111.651 97.0883 111.712 97.443 111.712C97.863 111.712 98.2083 111.619 98.479 111.432C98.759 111.245 98.9363 110.998 99.011 110.69H100.649C100.574 111.11 100.434 111.474 100.229 111.782C100.033 112.09 99.7903 112.342 99.501 112.538C99.2116 112.734 98.8896 112.879 98.535 112.972C98.1803 113.056 97.8023 113.098 97.401 113.098ZM102.632 109.486C102.679 108.851 102.707 108.221 102.716 107.596C102.735 106.961 102.753 106.303 102.772 105.622H108.288V113H106.678V107.008H104.256C104.237 107.465 104.219 107.923 104.2 108.38C104.191 108.828 104.172 109.276 104.144 109.724C104.135 109.892 104.116 110.093 104.088 110.326C104.069 110.55 104.041 110.779 104.004 111.012C103.967 111.236 103.911 111.451 103.836 111.656C103.761 111.852 103.668 112.034 103.556 112.202C103.36 112.482 103.099 112.687 102.772 112.818C102.455 112.939 102.086 113 101.666 113H101.274V111.628C101.554 111.628 101.778 111.563 101.946 111.432C102.123 111.292 102.254 111.119 102.338 110.914C102.431 110.699 102.497 110.471 102.534 110.228C102.581 109.976 102.613 109.729 102.632 109.486ZM113.344 105.496C113.932 105.496 114.45 105.589 114.898 105.776C115.346 105.963 115.724 106.224 116.032 106.56C116.349 106.887 116.587 107.283 116.746 107.75C116.905 108.217 116.984 108.735 116.984 109.304C116.984 109.883 116.905 110.405 116.746 110.872C116.597 111.329 116.368 111.726 116.06 112.062C115.752 112.398 115.369 112.655 114.912 112.832C114.464 113.009 113.941 113.098 113.344 113.098C112.756 113.098 112.238 113.009 111.79 112.832C111.342 112.645 110.964 112.389 110.656 112.062C110.357 111.726 110.129 111.325 109.97 110.858C109.821 110.391 109.746 109.873 109.746 109.304C109.746 108.735 109.821 108.217 109.97 107.75C110.129 107.283 110.362 106.887 110.67 106.56C110.978 106.224 111.356 105.963 111.804 105.776C112.252 105.589 112.765 105.496 113.344 105.496ZM113.344 111.712C113.708 111.712 114.016 111.651 114.268 111.53C114.529 111.399 114.739 111.227 114.898 111.012C115.066 110.797 115.187 110.545 115.262 110.256C115.346 109.967 115.388 109.654 115.388 109.318C115.388 108.982 115.346 108.669 115.262 108.38C115.187 108.081 115.066 107.825 114.898 107.61C114.739 107.395 114.529 107.227 114.268 107.106C114.016 106.985 113.708 106.924 113.344 106.924C112.989 106.924 112.681 106.985 112.42 107.106C112.168 107.227 111.958 107.395 111.79 107.61C111.631 107.825 111.51 108.081 111.426 108.38C111.351 108.669 111.314 108.982 111.314 109.318C111.314 109.654 111.351 109.967 111.426 110.256C111.51 110.545 111.631 110.797 111.79 111.012C111.958 111.227 112.168 111.399 112.42 111.53C112.681 111.651 112.989 111.712 113.344 111.712ZM118.434 105.622H121.584C121.911 105.622 122.242 105.641 122.578 105.678C122.914 105.706 123.218 105.785 123.488 105.916C123.768 106.047 123.992 106.238 124.16 106.49C124.338 106.733 124.431 107.064 124.44 107.484C124.44 107.811 124.366 108.114 124.216 108.394C124.067 108.674 123.829 108.903 123.502 109.08C123.95 109.201 124.277 109.416 124.482 109.724C124.697 110.023 124.804 110.382 124.804 110.802C124.804 111.194 124.725 111.535 124.566 111.824C124.408 112.104 124.198 112.333 123.936 112.51C123.675 112.678 123.372 112.804 123.026 112.888C122.681 112.963 122.317 113 121.934 113H118.434V105.622ZM120.044 106.952V108.646H121.01C121.225 108.646 121.444 108.646 121.668 108.646C121.902 108.637 122.107 108.604 122.284 108.548C122.471 108.492 122.62 108.403 122.732 108.282C122.854 108.161 122.914 107.988 122.914 107.764C122.914 107.568 122.868 107.419 122.774 107.316C122.69 107.204 122.583 107.12 122.452 107.064C122.322 107.008 122.172 106.975 122.004 106.966C121.846 106.957 121.696 106.952 121.556 106.952H120.044ZM121.668 111.656C121.855 111.656 122.037 111.647 122.214 111.628C122.401 111.609 122.564 111.567 122.704 111.502C122.854 111.427 122.975 111.334 123.068 111.222C123.162 111.101 123.208 110.942 123.208 110.746C123.208 110.391 123.096 110.153 122.872 110.032C122.658 109.911 122.392 109.85 122.074 109.85H120.044V111.656H121.668ZM131.042 112.09C130.799 112.435 130.477 112.692 130.076 112.86C129.675 113.019 129.227 113.098 128.732 113.098C128.34 113.098 127.981 113.051 127.654 112.958C127.337 112.865 127.057 112.725 126.814 112.538C126.571 112.342 126.38 112.104 126.24 111.824C126.1 111.535 126.03 111.208 126.03 110.844C126.03 110.443 126.109 110.102 126.268 109.822C126.427 109.533 126.641 109.299 126.912 109.122C127.192 108.945 127.519 108.814 127.892 108.73C128.265 108.637 128.657 108.59 129.068 108.59H130.958C130.958 108.049 130.837 107.629 130.594 107.33C130.351 107.031 129.927 106.877 129.32 106.868C128.965 106.868 128.657 106.929 128.396 107.05C128.144 107.171 127.976 107.372 127.892 107.652H126.254C126.31 107.26 126.436 106.929 126.632 106.658C126.837 106.387 127.08 106.163 127.36 105.986C127.649 105.809 127.967 105.683 128.312 105.608C128.667 105.533 129.021 105.496 129.376 105.496C129.833 105.496 130.258 105.557 130.65 105.678C131.042 105.799 131.383 106.005 131.672 106.294C131.999 106.63 132.218 107.031 132.33 107.498C132.442 107.965 132.498 108.473 132.498 109.024V113H131.112L131.042 112.09ZM130.958 109.724H129.418C129.147 109.724 128.877 109.747 128.606 109.794C128.335 109.831 128.102 109.929 127.906 110.088C127.719 110.237 127.626 110.457 127.626 110.746C127.626 111.101 127.752 111.371 128.004 111.558C128.265 111.735 128.583 111.824 128.956 111.824C129.245 111.824 129.511 111.787 129.754 111.712C130.006 111.637 130.221 111.516 130.398 111.348C130.575 111.171 130.711 110.951 130.804 110.69C130.907 110.419 130.958 110.097 130.958 109.724Z" fill="white"/>
<path d="M48.2446 119.618C47.7779 120.187 47.3812 120.766 47.0546 121.354C46.7279 121.933 46.4619 122.521 46.2566 123.118C46.0512 123.715 45.9019 124.317 45.8086 124.924C45.7152 125.531 45.6639 126.137 45.6546 126.744C45.6732 127.976 45.8786 129.185 46.2706 130.37C46.6626 131.546 47.3159 132.703 48.2306 133.842H46.4386C46.0372 133.338 45.6872 132.797 45.3886 132.218C45.0899 131.649 44.8426 131.061 44.6466 130.454C44.4506 129.838 44.3012 129.217 44.1986 128.592C44.1052 127.967 44.0586 127.351 44.0586 126.744C44.0586 126.137 44.1052 125.521 44.1986 124.896C44.3012 124.261 44.4506 123.636 44.6466 123.02C44.8519 122.404 45.1039 121.811 45.4026 121.242C45.7012 120.663 46.0512 120.122 46.4526 119.618H48.2446ZM53.4696 127.052C53.8616 127.183 54.1509 127.397 54.3376 127.696C54.5243 127.985 54.6176 128.312 54.6176 128.676C54.6176 128.695 54.6176 128.713 54.6176 128.732C54.6176 129.199 54.5243 129.586 54.3376 129.894C54.1509 130.202 53.8989 130.449 53.5816 130.636C53.2736 130.813 52.9376 130.935 52.5736 131C52.2189 131.065 51.8549 131.098 51.4816 131.098C51.1176 131.098 50.7443 131.065 50.3616 131C49.9883 130.925 49.6429 130.799 49.3256 130.622C49.0176 130.445 48.7609 130.211 48.5556 129.922C48.3503 129.633 48.2336 129.269 48.2056 128.83H49.7456C49.7829 129.017 49.8623 129.171 49.9836 129.292C50.1143 129.413 50.2636 129.511 50.4316 129.586C50.5996 129.661 50.7769 129.712 50.9636 129.74C51.1503 129.768 51.3229 129.782 51.4816 129.782C51.6496 129.782 51.8316 129.773 52.0276 129.754C52.2236 129.726 52.3963 129.679 52.5456 129.614C52.7043 129.539 52.8349 129.441 52.9376 129.32C53.0403 129.189 53.0916 129.021 53.0916 128.816C53.0916 128.461 52.9563 128.223 52.6856 128.102C52.4243 127.981 52.0929 127.92 51.6916 127.92H50.4596V126.66H51.5656C51.9109 126.66 52.2049 126.59 52.4476 126.45C52.6903 126.31 52.8116 126.067 52.8116 125.722C52.8116 125.545 52.7649 125.4 52.6716 125.288C52.5876 125.167 52.4803 125.073 52.3496 125.008C52.2189 124.943 52.0743 124.901 51.9156 124.882C51.7569 124.854 51.6169 124.84 51.4956 124.84C51.3369 124.84 51.1736 124.854 51.0056 124.882C50.8376 124.901 50.6789 124.943 50.5296 125.008C50.3803 125.073 50.2543 125.162 50.1516 125.274C50.0489 125.386 49.9883 125.531 49.9696 125.708H48.4436C48.4809 125.269 48.5976 124.91 48.7936 124.63C48.9896 124.341 49.2323 124.112 49.5216 123.944C49.8109 123.776 50.1283 123.659 50.4736 123.594C50.8283 123.529 51.1783 123.496 51.5236 123.496C51.8689 123.496 52.2049 123.529 52.5316 123.594C52.8676 123.659 53.1756 123.781 53.4556 123.958C53.7356 124.135 53.9503 124.35 54.0996 124.602C54.2583 124.845 54.3376 125.162 54.3376 125.554C54.3376 125.909 54.2536 126.212 54.0856 126.464C53.9269 126.716 53.7216 126.912 53.4696 127.052ZM56.0358 131V123.622H57.6318V126.66H60.9078V123.622H62.5038V131H60.9078V128.046H57.6318V131H56.0358ZM68.9989 130.09C68.7562 130.435 68.4342 130.692 68.0329 130.86C67.6316 131.019 67.1836 131.098 66.6889 131.098C66.2969 131.098 65.9376 131.051 65.6109 130.958C65.2936 130.865 65.0136 130.725 64.7709 130.538C64.5282 130.342 64.3369 130.104 64.1969 129.824C64.0569 129.535 63.9869 129.208 63.9869 128.844C63.9869 128.443 64.0662 128.102 64.2249 127.822C64.3836 127.533 64.5982 127.299 64.8689 127.122C65.1489 126.945 65.4756 126.814 65.8489 126.73C66.2222 126.637 66.6142 126.59 67.0249 126.59H68.9149C68.9149 126.049 68.7936 125.629 68.5509 125.33C68.3082 125.031 67.8836 124.877 67.2769 124.868C66.9222 124.868 66.6142 124.929 66.3529 125.05C66.1009 125.171 65.9329 125.372 65.8489 125.652H64.2109C64.2669 125.26 64.3929 124.929 64.5889 124.658C64.7942 124.387 65.0369 124.163 65.3169 123.986C65.6062 123.809 65.9236 123.683 66.2689 123.608C66.6236 123.533 66.9782 123.496 67.3329 123.496C67.7902 123.496 68.2149 123.557 68.6069 123.678C68.9989 123.799 69.3396 124.005 69.6289 124.294C69.9556 124.63 70.1749 125.031 70.2869 125.498C70.3989 125.965 70.4549 126.473 70.4549 127.024V131H69.0689L68.9989 130.09ZM68.9149 127.724H67.3749C67.1042 127.724 66.8336 127.747 66.5629 127.794C66.2922 127.831 66.0589 127.929 65.8629 128.088C65.6762 128.237 65.5829 128.457 65.5829 128.746C65.5829 129.101 65.7089 129.371 65.9609 129.558C66.2222 129.735 66.5396 129.824 66.9129 129.824C67.2022 129.824 67.4682 129.787 67.7109 129.712C67.9629 129.637 68.1776 129.516 68.3549 129.348C68.5322 129.171 68.6676 128.951 68.7609 128.69C68.8636 128.419 68.9149 128.097 68.9149 127.724ZM72.1686 131V123.622H73.7506V126.632H74.8846L76.7746 123.622H78.5946L76.2566 127.136L78.7766 131H76.9286L74.9826 128.018H73.7506V131H72.1686ZM82.8557 123.496C83.4437 123.496 83.9617 123.589 84.4097 123.776C84.8577 123.963 85.2357 124.224 85.5437 124.56C85.8611 124.887 86.0991 125.283 86.2577 125.75C86.4164 126.217 86.4957 126.735 86.4957 127.304C86.4957 127.883 86.4164 128.405 86.2577 128.872C86.1084 129.329 85.8797 129.726 85.5717 130.062C85.2637 130.398 84.8811 130.655 84.4237 130.832C83.9757 131.009 83.4531 131.098 82.8557 131.098C82.2677 131.098 81.7497 131.009 81.3017 130.832C80.8537 130.645 80.4757 130.389 80.1677 130.062C79.8691 129.726 79.6404 129.325 79.4817 128.858C79.3324 128.391 79.2577 127.873 79.2577 127.304C79.2577 126.735 79.3324 126.217 79.4817 125.75C79.6404 125.283 79.8737 124.887 80.1817 124.56C80.4897 124.224 80.8677 123.963 81.3157 123.776C81.7637 123.589 82.2771 123.496 82.8557 123.496ZM82.8557 129.712C83.2197 129.712 83.5277 129.651 83.7797 129.53C84.0411 129.399 84.2511 129.227 84.4097 129.012C84.5777 128.797 84.6991 128.545 84.7737 128.256C84.8577 127.967 84.8997 127.654 84.8997 127.318C84.8997 126.982 84.8577 126.669 84.7737 126.38C84.6991 126.081 84.5777 125.825 84.4097 125.61C84.2511 125.395 84.0411 125.227 83.7797 125.106C83.5277 124.985 83.2197 124.924 82.8557 124.924C82.5011 124.924 82.1931 124.985 81.9317 125.106C81.6797 125.227 81.4697 125.395 81.3017 125.61C81.1431 125.825 81.0217 126.081 80.9377 126.38C80.8631 126.669 80.8257 126.982 80.8257 127.318C80.8257 127.654 80.8631 127.967 80.9377 128.256C81.0217 128.545 81.1431 128.797 81.3017 129.012C81.4697 129.227 81.6797 129.399 81.9317 129.53C82.1931 129.651 82.5011 129.712 82.8557 129.712ZM87.9459 123.622H89.8639L92.0899 127.136L94.3019 123.622H96.1779V131H94.6099V125.708L92.2719 129.348H91.8939L89.5139 125.708V131H87.9459V123.622ZM97.9264 123.622H99.5364V126.114H100.866C101.277 126.114 101.66 126.151 102.014 126.226C102.369 126.301 102.672 126.431 102.924 126.618C103.186 126.795 103.391 127.033 103.54 127.332C103.69 127.631 103.764 128.004 103.764 128.452C103.764 128.956 103.671 129.376 103.484 129.712C103.298 130.039 103.055 130.3 102.756 130.496C102.458 130.683 102.122 130.813 101.748 130.888C101.375 130.963 101.006 131 100.642 131H97.9264V123.622ZM104.716 131V123.622H106.298V131H104.716ZM100.502 129.67C100.708 129.67 100.913 129.656 101.118 129.628C101.324 129.591 101.506 129.535 101.664 129.46C101.823 129.376 101.949 129.259 102.042 129.11C102.136 128.961 102.182 128.765 102.182 128.522C102.182 128.317 102.145 128.149 102.07 128.018C102.005 127.887 101.912 127.785 101.79 127.71C101.678 127.626 101.548 127.57 101.398 127.542C101.249 127.514 101.1 127.495 100.95 127.486H99.5364V129.656L100.502 129.67ZM109.36 127.85C109.378 128.121 109.434 128.373 109.528 128.606C109.621 128.839 109.747 129.045 109.906 129.222C110.064 129.39 110.26 129.525 110.494 129.628C110.736 129.731 111.016 129.782 111.334 129.782C111.67 129.782 111.978 129.721 112.258 129.6C112.547 129.479 112.757 129.269 112.888 128.97H114.526C114.432 129.343 114.278 129.665 114.064 129.936C113.858 130.207 113.611 130.431 113.322 130.608C113.042 130.776 112.729 130.902 112.384 130.986C112.048 131.061 111.688 131.098 111.306 131.098C110.718 131.098 110.2 131.009 109.752 130.832C109.313 130.655 108.944 130.398 108.646 130.062C108.347 129.726 108.123 129.329 107.974 128.872C107.834 128.405 107.764 127.883 107.764 127.304C107.764 126.744 107.843 126.235 108.002 125.778C108.16 125.311 108.389 124.91 108.688 124.574C108.996 124.238 109.364 123.977 109.794 123.79C110.223 123.594 110.713 123.496 111.264 123.496C111.842 123.496 112.342 123.594 112.762 123.79C113.182 123.977 113.532 124.233 113.812 124.56C114.101 124.887 114.316 125.269 114.456 125.708C114.596 126.147 114.666 126.623 114.666 127.136C114.666 127.379 114.652 127.617 114.624 127.85H109.36ZM113.112 126.646C113.084 126.067 112.902 125.629 112.566 125.33C112.239 125.031 111.81 124.882 111.278 124.882C110.979 124.882 110.718 124.929 110.494 125.022C110.27 125.115 110.078 125.241 109.92 125.4C109.77 125.559 109.649 125.745 109.556 125.96C109.462 126.175 109.402 126.403 109.374 126.646H113.112ZM114.752 133.842C115.676 132.703 116.334 131.541 116.726 130.356C117.118 129.161 117.323 127.953 117.342 126.73C117.323 125.498 117.118 124.289 116.726 123.104C116.334 121.919 115.681 120.757 114.766 119.618H116.544C116.945 120.122 117.295 120.663 117.594 121.242C117.893 121.811 118.14 122.404 118.336 123.02C118.541 123.627 118.691 124.247 118.784 124.882C118.887 125.507 118.938 126.123 118.938 126.73C118.938 127.337 118.887 127.957 118.784 128.592C118.681 129.217 118.527 129.838 118.322 130.454C118.126 131.061 117.879 131.649 117.58 132.218C117.281 132.797 116.931 133.338 116.53 133.842H114.752Z" fill="white" fill-opacity="0.5"/>
<circle cx="142.689" cy="37.4124" r="10.8355" transform="rotate(-85.4295 142.689 37.4124)" fill="#FFB800"/>
<circle cx="20.4399" cy="142.857" r="20.3" transform="rotate(-119.206 20.4399 142.857)" fill="#FFBB37"/>
</svg>
