<svg width="168" height="184" viewBox="0 0 168 184" fill="none" xmlns="http://www.w3.org/2000/svg">
<ellipse cx="33.785" cy="62.9073" rx="32.9875" ry="32.9875" transform="rotate(-30.9751 33.785 62.9073)" fill="#FE5D74"/>
<ellipse cx="48.2841" cy="33.9075" rx="32.9875" ry="32.9875" transform="rotate(-30.9751 48.2841 33.9075)" fill="#FE5D74" fill-opacity="0.6"/>
<ellipse cx="143.757" cy="98.6084" rx="23.6985" ry="23.6985" transform="rotate(-30.9751 143.757 98.6084)" fill="#FE5D74"/>
<rect x="11" y="10" width="145" height="145" rx="72.5" fill="#FE5D74"/>
<path d="M78.632 72L84.872 58.104H77V55.008H88.832V57.6L82.52 72H78.632Z" fill="white" fill-opacity="0.7"/>
<path d="M50.6668 94V86.622H52.2488V89.632H53.3828L55.2728 86.622H57.0928L54.7548 90.136L57.2748 94H55.4268L53.4808 91.018H52.2488V94H50.6668ZM61.354 86.496C61.942 86.496 62.46 86.5893 62.908 86.776C63.356 86.9627 63.734 87.224 64.042 87.56C64.3593 87.8867 64.5973 88.2833 64.756 88.75C64.9146 89.2167 64.994 89.7347 64.994 90.304C64.994 90.8827 64.9146 91.4053 64.756 91.872C64.6066 92.3293 64.378 92.726 64.07 93.062C63.762 93.398 63.3793 93.6547 62.922 93.832C62.474 94.0093 61.9513 94.098 61.354 94.098C60.766 94.098 60.248 94.0093 59.8 93.832C59.352 93.6453 58.974 93.3887 58.666 93.062C58.3673 92.726 58.1386 92.3247 57.98 91.858C57.8306 91.3913 57.756 90.8733 57.756 90.304C57.756 89.7347 57.8306 89.2167 57.98 88.75C58.1386 88.2833 58.372 87.8867 58.68 87.56C58.988 87.224 59.366 86.9627 59.814 86.776C60.262 86.5893 60.7753 86.496 61.354 86.496ZM61.354 92.712C61.718 92.712 62.026 92.6513 62.278 92.53C62.5393 92.3993 62.7493 92.2267 62.908 92.012C63.076 91.7973 63.1973 91.5453 63.272 91.256C63.356 90.9667 63.398 90.654 63.398 90.318C63.398 89.982 63.356 89.6693 63.272 89.38C63.1973 89.0813 63.076 88.8247 62.908 88.61C62.7493 88.3953 62.5393 88.2273 62.278 88.106C62.026 87.9847 61.718 87.924 61.354 87.924C60.9993 87.924 60.6913 87.9847 60.43 88.106C60.178 88.2273 59.968 88.3953 59.8 88.61C59.6413 88.8247 59.52 89.0813 59.436 89.38C59.3613 89.6693 59.324 89.982 59.324 90.318C59.324 90.654 59.3613 90.9667 59.436 91.256C59.52 91.5453 59.6413 91.7973 59.8 92.012C59.968 92.2267 60.178 92.3993 60.43 92.53C60.6913 92.6513 60.9993 92.712 61.354 92.712ZM68.0402 96.87H66.4442V86.622H67.9562L68.0402 87.672C68.3108 87.2893 68.6608 87 69.0902 86.804C69.5288 86.5987 69.9862 86.496 70.4622 86.496C70.9662 86.496 71.4188 86.5893 71.8202 86.776C72.2215 86.9533 72.5622 87.2053 72.8422 87.532C73.1315 87.8587 73.3462 88.2553 73.4862 88.722C73.6355 89.1793 73.7102 89.702 73.7102 90.29C73.7102 90.8407 73.6402 91.3493 73.5002 91.816C73.3602 92.2827 73.1502 92.6887 72.8702 93.034C72.5995 93.37 72.2588 93.6313 71.8482 93.818C71.4468 94.0047 70.9568 94.098 70.3782 94.098C69.9302 94.098 69.5008 94.028 69.0902 93.888C68.6888 93.7387 68.3388 93.496 68.0402 93.16V96.87ZM70.1262 92.712C70.4715 92.712 70.7702 92.6513 71.0222 92.53C71.2742 92.3993 71.4795 92.2267 71.6382 92.012C71.8062 91.7973 71.9275 91.5453 72.0022 91.256C72.0862 90.9667 72.1282 90.654 72.1282 90.318C72.1282 89.982 72.0862 89.6693 72.0022 89.38C71.9275 89.0813 71.8062 88.8247 71.6382 88.61C71.4795 88.3953 71.2695 88.2273 71.0082 88.106C70.7562 87.9847 70.4528 87.924 70.0982 87.924C69.7808 87.924 69.4868 87.9893 69.2162 88.12C68.9548 88.2507 68.7355 88.4233 68.5582 88.638C68.3808 88.8527 68.2455 89.1093 68.1522 89.408C68.0682 89.6973 68.0262 89.996 68.0262 90.304C68.0262 90.64 68.0682 90.9573 68.1522 91.256C68.2362 91.5453 68.3622 91.7973 68.5302 92.012C68.7075 92.2173 68.9268 92.3853 69.1882 92.516C69.4495 92.6467 69.7622 92.712 70.1262 92.712ZM78.4301 86.496C79.0181 86.496 79.5361 86.5893 79.9841 86.776C80.4321 86.9627 80.8101 87.224 81.1181 87.56C81.4355 87.8867 81.6735 88.2833 81.8321 88.75C81.9908 89.2167 82.0701 89.7347 82.0701 90.304C82.0701 90.8827 81.9908 91.4053 81.8321 91.872C81.6828 92.3293 81.4541 92.726 81.1461 93.062C80.8381 93.398 80.4555 93.6547 79.9981 93.832C79.5501 94.0093 79.0275 94.098 78.4301 94.098C77.8421 94.098 77.3241 94.0093 76.8761 93.832C76.4281 93.6453 76.0501 93.3887 75.7421 93.062C75.4435 92.726 75.2148 92.3247 75.0561 91.858C74.9068 91.3913 74.8321 90.8733 74.8321 90.304C74.8321 89.7347 74.9068 89.2167 75.0561 88.75C75.2148 88.2833 75.4481 87.8867 75.7561 87.56C76.0641 87.224 76.4421 86.9627 76.8901 86.776C77.3381 86.5893 77.8515 86.496 78.4301 86.496ZM78.4301 92.712C78.7941 92.712 79.1021 92.6513 79.3541 92.53C79.6155 92.3993 79.8255 92.2267 79.9841 92.012C80.1521 91.7973 80.2735 91.5453 80.3481 91.256C80.4321 90.9667 80.4741 90.654 80.4741 90.318C80.4741 89.982 80.4321 89.6693 80.3481 89.38C80.2735 89.0813 80.1521 88.8247 79.9841 88.61C79.8255 88.3953 79.6155 88.2273 79.3541 88.106C79.1021 87.9847 78.7941 87.924 78.4301 87.924C78.0755 87.924 77.7675 87.9847 77.5061 88.106C77.2541 88.2273 77.0441 88.3953 76.8761 88.61C76.7175 88.8247 76.5961 89.0813 76.5121 89.38C76.4375 89.6693 76.4001 89.982 76.4001 90.318C76.4001 90.654 76.4375 90.9667 76.5121 91.256C76.5961 91.5453 76.7175 91.7973 76.8761 92.012C77.0441 92.2267 77.2541 92.3993 77.5061 92.53C77.7675 92.6513 78.0755 92.712 78.4301 92.712ZM89.2743 86.622V88.008H86.7823V94H85.2003V88.008H82.7083V86.622H89.2743ZM90.1922 94V86.622H91.7742V89.632H92.9082L94.7982 86.622H96.6182L94.2802 90.136L96.8002 94H94.9522L93.0062 91.018H91.7742V94H90.1922ZM99.1821 94H97.6981V86.622H99.2941V91.69L103.046 86.622H104.488V94H102.892V89.03C102.883 89.0487 101.646 90.7053 99.1821 94ZM107.545 90.85C107.564 91.1207 107.62 91.3727 107.713 91.606C107.807 91.8393 107.933 92.0447 108.091 92.222C108.25 92.39 108.446 92.5253 108.679 92.628C108.922 92.7307 109.202 92.782 109.519 92.782C109.855 92.782 110.163 92.7213 110.443 92.6C110.733 92.4787 110.943 92.2687 111.073 91.97H112.711C112.618 92.3433 112.464 92.6653 112.249 92.936C112.044 93.2067 111.797 93.4307 111.507 93.608C111.227 93.776 110.915 93.902 110.569 93.986C110.233 94.0607 109.874 94.098 109.491 94.098C108.903 94.098 108.385 94.0093 107.937 93.832C107.499 93.6547 107.13 93.398 106.831 93.062C106.533 92.726 106.309 92.3293 106.159 91.872C106.019 91.4053 105.949 90.8827 105.949 90.304C105.949 89.744 106.029 89.2353 106.187 88.778C106.346 88.3113 106.575 87.91 106.873 87.574C107.181 87.238 107.55 86.9767 107.979 86.79C108.409 86.594 108.899 86.496 109.449 86.496C110.028 86.496 110.527 86.594 110.947 86.79C111.367 86.9767 111.717 87.2333 111.997 87.56C112.287 87.8867 112.501 88.2693 112.641 88.708C112.781 89.1467 112.851 89.6227 112.851 90.136C112.851 90.3787 112.837 90.6167 112.809 90.85H107.545ZM111.297 89.646C111.269 89.0673 111.087 88.6287 110.751 88.33C110.425 88.0313 109.995 87.882 109.463 87.882C109.165 87.882 108.903 87.9287 108.679 88.022C108.455 88.1153 108.264 88.2413 108.105 88.4C107.956 88.5587 107.835 88.7453 107.741 88.96C107.648 89.1747 107.587 89.4033 107.559 89.646H111.297ZM37.4803 112V104.622H43.9483V112H42.3523V106.008H39.0763V112H37.4803ZM47.2794 114.87H45.6834V104.622H47.1954L47.2794 105.672C47.5501 105.289 47.9001 105 48.3294 104.804C48.7681 104.599 49.2254 104.496 49.7014 104.496C50.2054 104.496 50.6581 104.589 51.0594 104.776C51.4608 104.953 51.8014 105.205 52.0814 105.532C52.3708 105.859 52.5854 106.255 52.7254 106.722C52.8748 107.179 52.9494 107.702 52.9494 108.29C52.9494 108.841 52.8794 109.349 52.7394 109.816C52.5994 110.283 52.3894 110.689 52.1094 111.034C51.8388 111.37 51.4981 111.631 51.0874 111.818C50.6861 112.005 50.1961 112.098 49.6174 112.098C49.1694 112.098 48.7401 112.028 48.3294 111.888C47.9281 111.739 47.5781 111.496 47.2794 111.16V114.87ZM49.3654 110.712C49.7108 110.712 50.0094 110.651 50.2614 110.53C50.5134 110.399 50.7188 110.227 50.8774 110.012C51.0454 109.797 51.1668 109.545 51.2414 109.256C51.3254 108.967 51.3674 108.654 51.3674 108.318C51.3674 107.982 51.3254 107.669 51.2414 107.38C51.1668 107.081 51.0454 106.825 50.8774 106.61C50.7188 106.395 50.5088 106.227 50.2474 106.106C49.9954 105.985 49.6921 105.924 49.3374 105.924C49.0201 105.924 48.7261 105.989 48.4554 106.12C48.1941 106.251 47.9748 106.423 47.7974 106.638C47.6201 106.853 47.4848 107.109 47.3914 107.408C47.3074 107.697 47.2654 107.996 47.2654 108.304C47.2654 108.64 47.3074 108.957 47.3914 109.256C47.4754 109.545 47.6014 109.797 47.7694 110.012C47.9468 110.217 48.1661 110.385 48.4274 110.516C48.6888 110.647 49.0014 110.712 49.3654 110.712ZM55.6674 108.85C55.6861 109.121 55.7421 109.373 55.8354 109.606C55.9287 109.839 56.0547 110.045 56.2134 110.222C56.3721 110.39 56.5681 110.525 56.8014 110.628C57.0441 110.731 57.3241 110.782 57.6414 110.782C57.9774 110.782 58.2854 110.721 58.5654 110.6C58.8547 110.479 59.0647 110.269 59.1954 109.97H60.8334C60.7401 110.343 60.5861 110.665 60.3714 110.936C60.1661 111.207 59.9187 111.431 59.6294 111.608C59.3494 111.776 59.0367 111.902 58.6914 111.986C58.3554 112.061 57.9961 112.098 57.6134 112.098C57.0254 112.098 56.5074 112.009 56.0594 111.832C55.6207 111.655 55.2521 111.398 54.9534 111.062C54.6547 110.726 54.4307 110.329 54.2814 109.872C54.1414 109.405 54.0714 108.883 54.0714 108.304C54.0714 107.744 54.1507 107.235 54.3094 106.778C54.4681 106.311 54.6967 105.91 54.9954 105.574C55.3034 105.238 55.6721 104.977 56.1014 104.79C56.5307 104.594 57.0207 104.496 57.5714 104.496C58.1501 104.496 58.6494 104.594 59.0694 104.79C59.4894 104.977 59.8394 105.233 60.1194 105.56C60.4087 105.887 60.6234 106.269 60.7634 106.708C60.9034 107.147 60.9734 107.623 60.9734 108.136C60.9734 108.379 60.9594 108.617 60.9314 108.85H55.6674ZM59.4194 107.646C59.3914 107.067 59.2094 106.629 58.8734 106.33C58.5467 106.031 58.1174 105.882 57.5854 105.882C57.2867 105.882 57.0254 105.929 56.8014 106.022C56.5774 106.115 56.3861 106.241 56.2274 106.4C56.0781 106.559 55.9567 106.745 55.8634 106.96C55.7701 107.175 55.7094 107.403 55.6814 107.646H59.4194ZM63.0517 107.254C63.0797 106.806 63.0984 106.372 63.1077 105.952C63.1171 105.523 63.1217 105.079 63.1217 104.622H68.8057V110.642H69.7717V114.156H68.2177V112H63.1777V114.156H61.6237V110.642C61.8944 110.642 62.1184 110.558 62.2957 110.39C62.4824 110.213 62.6084 110.017 62.6737 109.802C62.7391 109.653 62.7951 109.452 62.8417 109.2C62.8884 108.939 62.9257 108.682 62.9537 108.43C62.9817 108.178 63.0051 107.945 63.0237 107.73C63.0424 107.515 63.0517 107.357 63.0517 107.254ZM67.2097 106.008H64.5777C64.5591 106.344 64.5451 106.708 64.5357 107.1C64.5264 107.492 64.5124 107.87 64.4937 108.234C64.4751 108.411 64.4564 108.603 64.4377 108.808C64.4284 109.013 64.4051 109.223 64.3677 109.438C64.3304 109.643 64.2791 109.849 64.2137 110.054C64.1484 110.259 64.0597 110.455 63.9477 110.642H67.2097V106.008ZM71.8401 108.486C71.8868 107.851 71.9148 107.221 71.9241 106.596C71.9428 105.961 71.9615 105.303 71.9801 104.622H77.4961V112H75.8861V106.008H73.4641C73.4455 106.465 73.4268 106.923 73.4081 107.38C73.3988 107.828 73.3801 108.276 73.3521 108.724C73.3428 108.892 73.3241 109.093 73.2961 109.326C73.2775 109.55 73.2495 109.779 73.2121 110.012C73.1748 110.236 73.1188 110.451 73.0441 110.656C72.9695 110.852 72.8761 111.034 72.7641 111.202C72.5681 111.482 72.3068 111.687 71.9801 111.818C71.6628 111.939 71.2941 112 70.8741 112H70.4821V110.628C70.7621 110.628 70.9861 110.563 71.1541 110.432C71.3315 110.292 71.4621 110.119 71.5461 109.914C71.6395 109.699 71.7048 109.471 71.7421 109.228C71.7888 108.976 71.8215 108.729 71.8401 108.486ZM82.5522 104.496C83.1402 104.496 83.6582 104.589 84.1062 104.776C84.5542 104.963 84.9322 105.224 85.2402 105.56C85.5575 105.887 85.7955 106.283 85.9542 106.75C86.1129 107.217 86.1922 107.735 86.1922 108.304C86.1922 108.883 86.1129 109.405 85.9542 109.872C85.8049 110.329 85.5762 110.726 85.2682 111.062C84.9602 111.398 84.5775 111.655 84.1202 111.832C83.6722 112.009 83.1495 112.098 82.5522 112.098C81.9642 112.098 81.4462 112.009 80.9982 111.832C80.5502 111.645 80.1722 111.389 79.8642 111.062C79.5655 110.726 79.3369 110.325 79.1782 109.858C79.0289 109.391 78.9542 108.873 78.9542 108.304C78.9542 107.735 79.0289 107.217 79.1782 106.75C79.3369 106.283 79.5702 105.887 79.8782 105.56C80.1862 105.224 80.5642 104.963 81.0122 104.776C81.4602 104.589 81.9735 104.496 82.5522 104.496ZM82.5522 110.712C82.9162 110.712 83.2242 110.651 83.4762 110.53C83.7375 110.399 83.9475 110.227 84.1062 110.012C84.2742 109.797 84.3955 109.545 84.4702 109.256C84.5542 108.967 84.5962 108.654 84.5962 108.318C84.5962 107.982 84.5542 107.669 84.4702 107.38C84.3955 107.081 84.2742 106.825 84.1062 106.61C83.9475 106.395 83.7375 106.227 83.4762 106.106C83.2242 105.985 82.9162 105.924 82.5522 105.924C82.1975 105.924 81.8895 105.985 81.6282 106.106C81.3762 106.227 81.1662 106.395 80.9982 106.61C80.8395 106.825 80.7182 107.081 80.6342 107.38C80.5595 107.669 80.5222 107.982 80.5222 108.318C80.5222 108.654 80.5595 108.967 80.6342 109.256C80.7182 109.545 80.8395 109.797 80.9982 110.012C81.1662 110.227 81.3762 110.399 81.6282 110.53C81.8895 110.651 82.1975 110.712 82.5522 110.712ZM91.4957 112V109.018H90.3477L88.6397 112H86.7637L89.1017 108.136L86.9597 104.622H88.7377L90.4597 107.646H91.4957V104.622H93.0777V107.646H94.1137L95.8357 104.622H97.6137L95.4717 108.136L97.8097 112H95.9337L94.2257 109.018H93.0777V112H91.4957ZM99.9779 108.85C99.9966 109.121 100.053 109.373 100.146 109.606C100.239 109.839 100.365 110.045 100.524 110.222C100.683 110.39 100.879 110.525 101.112 110.628C101.355 110.731 101.635 110.782 101.952 110.782C102.288 110.782 102.596 110.721 102.876 110.6C103.165 110.479 103.375 110.269 103.506 109.97H105.144C105.051 110.343 104.897 110.665 104.682 110.936C104.477 111.207 104.229 111.431 103.94 111.608C103.66 111.776 103.347 111.902 103.002 111.986C102.666 112.061 102.307 112.098 101.924 112.098C101.336 112.098 100.818 112.009 100.37 111.832C99.9313 111.655 99.5626 111.398 99.2639 111.062C98.9653 110.726 98.7413 110.329 98.5919 109.872C98.4519 109.405 98.3819 108.883 98.3819 108.304C98.3819 107.744 98.4613 107.235 98.6199 106.778C98.7786 106.311 99.0073 105.91 99.3059 105.574C99.6139 105.238 99.9826 104.977 100.412 104.79C100.841 104.594 101.331 104.496 101.882 104.496C102.461 104.496 102.96 104.594 103.38 104.79C103.8 104.977 104.15 105.233 104.43 105.56C104.719 105.887 104.934 106.269 105.074 106.708C105.214 107.147 105.284 107.623 105.284 108.136C105.284 108.379 105.27 108.617 105.242 108.85H99.9779ZM103.73 107.646C103.702 107.067 103.52 106.629 103.184 106.33C102.857 106.031 102.428 105.882 101.896 105.882C101.597 105.882 101.336 105.929 101.112 106.022C100.888 106.115 100.697 106.241 100.538 106.4C100.389 106.559 100.267 106.745 100.174 106.96C100.081 107.175 100.02 107.403 99.9919 107.646H103.73ZM106.728 112V104.622H108.324V107.66H111.6V104.622H113.196V112H111.6V109.046H108.324V112H106.728ZM116.415 112H114.931V104.622H116.527V109.69L120.279 104.622H121.721V112H120.125V107.03C120.116 107.049 118.879 108.705 116.415 112ZM129.511 112H127.929V109.48H126.599L124.877 112H123.001L125.003 109.228C124.433 109.088 123.999 108.831 123.701 108.458C123.411 108.085 123.267 107.609 123.267 107.03C123.267 106.573 123.341 106.19 123.491 105.882C123.649 105.574 123.864 105.327 124.135 105.14C124.415 104.944 124.732 104.809 125.087 104.734C125.441 104.659 125.824 104.622 126.235 104.622H129.511V112ZM127.929 105.952H126.347C126.169 105.952 125.992 105.966 125.815 105.994C125.637 106.013 125.474 106.064 125.325 106.148C125.185 106.223 125.073 106.33 124.989 106.47C124.905 106.61 124.863 106.778 124.863 106.974C124.863 107.002 124.863 107.025 124.863 107.044C124.863 107.287 124.933 107.492 125.073 107.66C125.213 107.828 125.395 107.949 125.619 108.024C125.843 108.089 126.048 108.131 126.235 108.15C126.421 108.159 126.608 108.164 126.795 108.164H127.929V105.952Z" fill="white"/>
<ellipse cx="144.69" cy="144.563" rx="10.8355" ry="10.8355" transform="rotate(-85.4295 144.69 144.563)" fill="#FE5D74"/>
<ellipse cx="142.219" cy="75.7656" rx="19.211" ry="19.211" transform="rotate(-30.9751 142.219 75.7656)" fill="#EC3A54" fill-opacity="0.6"/>
</svg>
