<svg width="183" height="184" viewBox="0 0 183 184" fill="none" xmlns="http://www.w3.org/2000/svg">
<circle cx="33.4014" cy="101.695" r="32.9875" transform="rotate(86.9403 33.4014 101.695)" fill="#9532F8" fill-opacity="0.6"/>
<circle cx="154.408" cy="86.0765" r="20.3" transform="rotate(86.9403 154.408 86.0765)" fill="#9532F8"/>
<rect x="19" y="10" width="145" height="145" rx="72.5" fill="#9532F8"/>
<path d="M84.984 50.808C85.064 49.944 85.264 49.208 85.584 48.6C85.904 47.992 86.328 47.472 86.856 47.04C87.4 46.608 88.024 46.296 88.728 46.104C89.448 45.896 90.256 45.792 91.152 45.792C91.872 45.792 92.552 45.872 93.192 46.032C93.848 46.176 94.44 46.424 94.968 46.776C95.512 47.128 95.944 47.592 96.264 48.168C96.6 48.744 96.768 49.448 96.768 50.28C96.768 50.984 96.592 51.656 96.24 52.296C95.888 52.936 95.376 53.44 94.704 53.808C95.68 54.128 96.384 54.664 96.816 55.416C97.248 56.168 97.448 57.048 97.416 58.056C97.384 58.984 97.184 59.768 96.816 60.408C96.448 61.048 95.976 61.576 95.4 61.992C94.824 62.392 94.16 62.688 93.408 62.88C92.656 63.072 91.872 63.168 91.056 63.168C89.248 63.168 87.768 62.76 86.616 61.944C85.464 61.128 84.76 59.832 84.504 58.056H87.936C88.048 58.456 88.208 58.784 88.416 59.04C88.64 59.296 88.888 59.504 89.16 59.664C89.448 59.808 89.752 59.912 90.072 59.976C90.392 60.024 90.72 60.048 91.056 60.048C91.44 60.048 91.808 60.008 92.16 59.928C92.512 59.848 92.824 59.72 93.096 59.544C93.368 59.368 93.584 59.136 93.744 58.848C93.904 58.544 93.984 58.176 93.984 57.744C93.984 57.424 93.912 57.128 93.768 56.856C93.64 56.584 93.464 56.384 93.24 56.256C92.952 56.064 92.632 55.944 92.28 55.896C91.944 55.832 91.592 55.8 91.224 55.8H89.52V52.968H90.672C91.088 52.968 91.464 52.92 91.8 52.824C92.136 52.712 92.44 52.544 92.712 52.32C92.904 52.144 93.064 51.944 93.192 51.72C93.32 51.48 93.384 51.2 93.384 50.88C93.384 50.496 93.32 50.176 93.192 49.92C93.064 49.648 92.888 49.44 92.664 49.296C92.44 49.136 92.176 49.024 91.872 48.96C91.568 48.896 91.248 48.864 90.912 48.864C90.304 48.864 89.768 49.024 89.304 49.344C88.84 49.648 88.536 50.136 88.392 50.808H84.984Z" fill="white" fill-opacity="0.7"/>
<path d="M42.7755 84.09C42.5328 84.4353 42.2108 84.692 41.8095 84.86C41.4081 85.0187 40.9601 85.098 40.4655 85.098C40.0735 85.098 39.7141 85.0513 39.3875 84.958C39.0701 84.8647 38.7901 84.7247 38.5475 84.538C38.3048 84.342 38.1135 84.104 37.9735 83.824C37.8335 83.5347 37.7635 83.208 37.7635 82.844C37.7635 82.4427 37.8428 82.102 38.0015 81.822C38.1601 81.5327 38.3748 81.2993 38.6455 81.122C38.9255 80.9447 39.2521 80.814 39.6255 80.73C39.9988 80.6367 40.3908 80.59 40.8015 80.59H42.6915C42.6915 80.0487 42.5701 79.6287 42.3275 79.33C42.0848 79.0313 41.6601 78.8773 41.0535 78.868C40.6988 78.868 40.3908 78.9287 40.1295 79.05C39.8775 79.1713 39.7095 79.372 39.6255 79.652H37.9875C38.0435 79.26 38.1695 78.9287 38.3655 78.658C38.5708 78.3873 38.8135 78.1633 39.0935 77.986C39.3828 77.8087 39.7001 77.6827 40.0455 77.608C40.4001 77.5333 40.7548 77.496 41.1095 77.496C41.5668 77.496 41.9915 77.5567 42.3835 77.678C42.7755 77.7993 43.1161 78.0047 43.4055 78.294C43.7321 78.63 43.9515 79.0313 44.0635 79.498C44.1755 79.9647 44.2315 80.4733 44.2315 81.024V85H42.8455L42.7755 84.09ZM42.6915 81.724H41.1515C40.8808 81.724 40.6101 81.7473 40.3395 81.794C40.0688 81.8313 39.8355 81.9293 39.6395 82.088C39.4528 82.2373 39.3595 82.4567 39.3595 82.746C39.3595 83.1007 39.4855 83.3713 39.7375 83.558C39.9988 83.7353 40.3161 83.824 40.6895 83.824C40.9788 83.824 41.2448 83.7867 41.4875 83.712C41.7395 83.6373 41.9541 83.516 42.1315 83.348C42.3088 83.1707 42.4441 82.9513 42.5375 82.69C42.6401 82.4193 42.6915 82.0973 42.6915 81.724ZM45.9451 85V77.622H47.5271V80.632H48.6611L50.5511 77.622H52.3711L50.0331 81.136L52.5531 85H50.7051L48.7591 82.018H47.5271V85H45.9451ZM59.205 77.622V79.008H56.713V85H55.131V79.008H52.639V77.622H59.205ZM61.6069 85H60.1229V77.622H61.7189V82.69L65.4709 77.622H66.9129V85H65.3169V80.03C65.3075 80.0487 64.0709 81.7053 61.6069 85ZM68.6541 77.622H71.8041C72.1308 77.622 72.4621 77.6407 72.7981 77.678C73.1341 77.706 73.4375 77.7853 73.7081 77.916C73.9881 78.0467 74.2121 78.238 74.3801 78.49C74.5575 78.7327 74.6508 79.064 74.6601 79.484C74.6601 79.8107 74.5855 80.114 74.4361 80.394C74.2868 80.674 74.0488 80.9027 73.7221 81.08C74.1701 81.2013 74.4968 81.416 74.7021 81.724C74.9168 82.0227 75.0241 82.382 75.0241 82.802C75.0241 83.194 74.9448 83.5347 74.7861 83.824C74.6275 84.104 74.4175 84.3327 74.1561 84.51C73.8948 84.678 73.5915 84.804 73.2461 84.888C72.9008 84.9627 72.5368 85 72.1541 85H68.6541V77.622ZM70.2641 78.952V80.646H71.2301C71.4448 80.646 71.6641 80.646 71.8881 80.646C72.1215 80.6367 72.3268 80.604 72.5041 80.548C72.6908 80.492 72.8401 80.4033 72.9521 80.282C73.0735 80.1607 73.1341 79.988 73.1341 79.764C73.1341 79.568 73.0875 79.4187 72.9941 79.316C72.9101 79.204 72.8028 79.12 72.6721 79.064C72.5415 79.008 72.3921 78.9753 72.2241 78.966C72.0655 78.9567 71.9161 78.952 71.7761 78.952H70.2641ZM71.8881 83.656C72.0748 83.656 72.2568 83.6467 72.4341 83.628C72.6208 83.6093 72.7841 83.5673 72.9241 83.502C73.0735 83.4273 73.1948 83.334 73.2881 83.222C73.3815 83.1007 73.4281 82.942 73.4281 82.746C73.4281 82.3913 73.3161 82.1533 73.0921 82.032C72.8775 81.9107 72.6115 81.85 72.2941 81.85H70.2641V83.656H71.8881ZM76.5018 85V77.622H78.0978V80.66H81.3738V77.622H82.9698V85H81.3738V82.046H78.0978V85H76.5018ZM84.7049 77.622H86.3149V80.114H87.6449C88.0556 80.114 88.4382 80.1513 88.7929 80.226C89.1476 80.3007 89.4509 80.4313 89.7029 80.618C89.9642 80.7953 90.1696 81.0333 90.3189 81.332C90.4682 81.6307 90.5429 82.004 90.5429 82.452C90.5429 82.956 90.4496 83.376 90.2629 83.712C90.0762 84.0387 89.8336 84.3 89.5349 84.496C89.2362 84.6827 88.9002 84.8133 88.5269 84.888C88.1536 84.9627 87.7849 85 87.4209 85H84.7049V77.622ZM91.4949 85V77.622H93.0769V85H91.4949ZM87.2809 83.67C87.4862 83.67 87.6916 83.656 87.8969 83.628C88.1022 83.5907 88.2842 83.5347 88.4429 83.46C88.6016 83.376 88.7276 83.2593 88.8209 83.11C88.9142 82.9607 88.9609 82.7647 88.9609 82.522C88.9609 82.3167 88.9236 82.1487 88.8489 82.018C88.7836 81.8873 88.6902 81.7847 88.5689 81.71C88.4569 81.626 88.3262 81.57 88.1769 81.542C88.0276 81.514 87.8782 81.4953 87.7289 81.486H86.3149V83.656L87.2809 83.67ZM96.1381 81.85C96.1568 82.1207 96.2128 82.3727 96.3061 82.606C96.3994 82.8393 96.5254 83.0447 96.6841 83.222C96.8428 83.39 97.0388 83.5253 97.2721 83.628C97.5148 83.7307 97.7948 83.782 98.1121 83.782C98.4481 83.782 98.7561 83.7213 99.0361 83.6C99.3254 83.4787 99.5354 83.2687 99.6661 82.97H101.304C101.211 83.3433 101.057 83.6653 100.842 83.936C100.637 84.2067 100.389 84.4307 100.1 84.608C99.8201 84.776 99.5074 84.902 99.1621 84.986C98.8261 85.0607 98.4668 85.098 98.0841 85.098C97.4961 85.098 96.9781 85.0093 96.5301 84.832C96.0914 84.6547 95.7228 84.398 95.4241 84.062C95.1254 83.726 94.9014 83.3293 94.7521 82.872C94.6121 82.4053 94.5421 81.8827 94.5421 81.304C94.5421 80.744 94.6214 80.2353 94.7801 79.778C94.9388 79.3113 95.1674 78.91 95.4661 78.574C95.7741 78.238 96.1428 77.9767 96.5721 77.79C97.0014 77.594 97.4914 77.496 98.0421 77.496C98.6208 77.496 99.1201 77.594 99.5401 77.79C99.9601 77.9767 100.31 78.2333 100.59 78.56C100.879 78.8867 101.094 79.2693 101.234 79.708C101.374 80.1467 101.444 80.6227 101.444 81.136C101.444 81.3787 101.43 81.6167 101.402 81.85H96.1381ZM99.8901 80.646C99.8621 80.0673 99.6801 79.6287 99.3441 79.33C99.0174 79.0313 98.5881 78.882 98.0561 78.882C97.7574 78.882 97.4961 78.9287 97.2721 79.022C97.0481 79.1153 96.8568 79.2413 96.6981 79.4C96.5488 79.5587 96.4274 79.7453 96.3341 79.96C96.2408 80.1747 96.1801 80.4033 96.1521 80.646H99.8901ZM109.91 85.098C109.322 85.098 108.804 85.0093 108.356 84.832C107.917 84.6453 107.549 84.3887 107.25 84.062C106.961 83.726 106.741 83.3293 106.592 82.872C106.452 82.4053 106.382 81.892 106.382 81.332C106.382 80.772 106.457 80.2587 106.606 79.792C106.765 79.3253 106.998 78.924 107.306 78.588C107.614 78.252 107.987 77.986 108.426 77.79C108.865 77.594 109.373 77.496 109.952 77.496C110.363 77.496 110.741 77.5427 111.086 77.636C111.441 77.72 111.753 77.8647 112.024 78.07C112.295 78.266 112.528 78.518 112.724 78.826C112.92 79.1247 113.055 79.4887 113.13 79.918H111.478C111.394 79.6007 111.212 79.358 110.932 79.19C110.661 79.0127 110.325 78.924 109.924 78.924C109.569 78.924 109.266 78.9893 109.014 79.12C108.762 79.2507 108.557 79.428 108.398 79.652C108.239 79.876 108.123 80.1373 108.048 80.436C107.983 80.7253 107.95 81.0287 107.95 81.346C107.95 81.6727 107.987 81.9807 108.062 82.27C108.137 82.5593 108.253 82.8113 108.412 83.026C108.58 83.2313 108.79 83.3993 109.042 83.53C109.294 83.6513 109.597 83.712 109.952 83.712C110.372 83.712 110.717 83.6187 110.988 83.432C111.268 83.2453 111.445 82.998 111.52 82.69H113.158C113.083 83.11 112.943 83.474 112.738 83.782C112.542 84.09 112.299 84.342 112.01 84.538C111.721 84.734 111.399 84.8787 111.044 84.972C110.689 85.056 110.311 85.098 109.91 85.098ZM115.141 81.486C115.188 80.8513 115.216 80.2213 115.225 79.596C115.244 78.9613 115.262 78.3033 115.281 77.622H120.797V85H119.187V79.008H116.765C116.746 79.4653 116.728 79.9227 116.709 80.38C116.7 80.828 116.681 81.276 116.653 81.724C116.644 81.892 116.625 82.0927 116.597 82.326C116.578 82.55 116.55 82.7787 116.513 83.012C116.476 83.236 116.42 83.4507 116.345 83.656C116.27 83.852 116.177 84.034 116.065 84.202C115.869 84.482 115.608 84.6873 115.281 84.818C114.964 84.9393 114.595 85 114.175 85H113.783V83.628C114.063 83.628 114.287 83.5627 114.455 83.432C114.632 83.292 114.763 83.1193 114.847 82.914C114.94 82.6993 115.006 82.4707 115.043 82.228C115.09 81.976 115.122 81.7287 115.141 81.486ZM125.853 77.496C126.441 77.496 126.959 77.5893 127.407 77.776C127.855 77.9627 128.233 78.224 128.541 78.56C128.858 78.8867 129.096 79.2833 129.255 79.75C129.414 80.2167 129.493 80.7347 129.493 81.304C129.493 81.8827 129.414 82.4053 129.255 82.872C129.106 83.3293 128.877 83.726 128.569 84.062C128.261 84.398 127.878 84.6547 127.421 84.832C126.973 85.0093 126.45 85.098 125.853 85.098C125.265 85.098 124.747 85.0093 124.299 84.832C123.851 84.6453 123.473 84.3887 123.165 84.062C122.866 83.726 122.638 83.3247 122.479 82.858C122.33 82.3913 122.255 81.8733 122.255 81.304C122.255 80.7347 122.33 80.2167 122.479 79.75C122.638 79.2833 122.871 78.8867 123.179 78.56C123.487 78.224 123.865 77.9627 124.313 77.776C124.761 77.5893 125.274 77.496 125.853 77.496ZM125.853 83.712C126.217 83.712 126.525 83.6513 126.777 83.53C127.038 83.3993 127.248 83.2267 127.407 83.012C127.575 82.7973 127.696 82.5453 127.771 82.256C127.855 81.9667 127.897 81.654 127.897 81.318C127.897 80.982 127.855 80.6693 127.771 80.38C127.696 80.0813 127.575 79.8247 127.407 79.61C127.248 79.3953 127.038 79.2273 126.777 79.106C126.525 78.9847 126.217 78.924 125.853 78.924C125.498 78.924 125.19 78.9847 124.929 79.106C124.677 79.2273 124.467 79.3953 124.299 79.61C124.14 79.8247 124.019 80.0813 123.935 80.38C123.86 80.6693 123.823 80.982 123.823 81.318C123.823 81.654 123.86 81.9667 123.935 82.256C124.019 82.5453 124.14 82.7973 124.299 83.012C124.467 83.2267 124.677 83.3993 124.929 83.53C125.19 83.6513 125.498 83.712 125.853 83.712ZM130.943 77.622H134.093C134.42 77.622 134.751 77.6407 135.087 77.678C135.423 77.706 135.727 77.7853 135.997 77.916C136.277 78.0467 136.501 78.238 136.669 78.49C136.847 78.7327 136.94 79.064 136.949 79.484C136.949 79.8107 136.875 80.114 136.725 80.394C136.576 80.674 136.338 80.9027 136.011 81.08C136.459 81.2013 136.786 81.416 136.991 81.724C137.206 82.0227 137.313 82.382 137.313 82.802C137.313 83.194 137.234 83.5347 137.075 83.824C136.917 84.104 136.707 84.3327 136.445 84.51C136.184 84.678 135.881 84.804 135.535 84.888C135.19 84.9627 134.826 85 134.443 85H130.943V77.622ZM132.553 78.952V80.646H133.519C133.734 80.646 133.953 80.646 134.177 80.646C134.411 80.6367 134.616 80.604 134.793 80.548C134.98 80.492 135.129 80.4033 135.241 80.282C135.363 80.1607 135.423 79.988 135.423 79.764C135.423 79.568 135.377 79.4187 135.283 79.316C135.199 79.204 135.092 79.12 134.961 79.064C134.831 79.008 134.681 78.9753 134.513 78.966C134.355 78.9567 134.205 78.952 134.065 78.952H132.553ZM134.177 83.656C134.364 83.656 134.546 83.6467 134.723 83.628C134.91 83.6093 135.073 83.5673 135.213 83.502C135.363 83.4273 135.484 83.334 135.577 83.222C135.671 83.1007 135.717 82.942 135.717 82.746C135.717 82.3913 135.605 82.1533 135.381 82.032C135.167 81.9107 134.901 81.85 134.583 81.85H132.553V83.656H134.177ZM143.551 84.09C143.308 84.4353 142.986 84.692 142.585 84.86C142.184 85.0187 141.736 85.098 141.241 85.098C140.849 85.098 140.49 85.0513 140.163 84.958C139.846 84.8647 139.566 84.7247 139.323 84.538C139.08 84.342 138.889 84.104 138.749 83.824C138.609 83.5347 138.539 83.208 138.539 82.844C138.539 82.4427 138.618 82.102 138.777 81.822C138.936 81.5327 139.15 81.2993 139.421 81.122C139.701 80.9447 140.028 80.814 140.401 80.73C140.774 80.6367 141.166 80.59 141.577 80.59H143.467C143.467 80.0487 143.346 79.6287 143.103 79.33C142.86 79.0313 142.436 78.8773 141.829 78.868C141.474 78.868 141.166 78.9287 140.905 79.05C140.653 79.1713 140.485 79.372 140.401 79.652H138.763C138.819 79.26 138.945 78.9287 139.141 78.658C139.346 78.3873 139.589 78.1633 139.869 77.986C140.158 77.8087 140.476 77.6827 140.821 77.608C141.176 77.5333 141.53 77.496 141.885 77.496C142.342 77.496 142.767 77.5567 143.159 77.678C143.551 77.7993 143.892 78.0047 144.181 78.294C144.508 78.63 144.727 79.0313 144.839 79.498C144.951 79.9647 145.007 80.4733 145.007 81.024V85H143.621L143.551 84.09ZM143.467 81.724H141.927C141.656 81.724 141.386 81.7473 141.115 81.794C140.844 81.8313 140.611 81.9293 140.415 82.088C140.228 82.2373 140.135 82.4567 140.135 82.746C140.135 83.1007 140.261 83.3713 140.513 83.558C140.774 83.7353 141.092 83.824 141.465 83.824C141.754 83.824 142.02 83.7867 142.263 83.712C142.515 83.6373 142.73 83.516 142.907 83.348C143.084 83.1707 143.22 82.9513 143.313 82.69C143.416 82.4193 143.467 82.0973 143.467 81.724Z" fill="white"/>
<path d="M54.5465 91.618C54.0798 92.1873 53.6832 92.766 53.3565 93.354C53.0298 93.9327 52.7638 94.5207 52.5585 95.118C52.3532 95.7153 52.2038 96.3173 52.1105 96.924C52.0172 97.5307 51.9658 98.1373 51.9565 98.744C51.9752 99.976 52.1805 101.185 52.5725 102.37C52.9645 103.546 53.6178 104.703 54.5325 105.842H52.7405C52.3392 105.338 51.9892 104.797 51.6905 104.218C51.3918 103.649 51.1445 103.061 50.9485 102.454C50.7525 101.838 50.6032 101.217 50.5005 100.592C50.4072 99.9667 50.3605 99.3507 50.3605 98.744C50.3605 98.1373 50.4072 97.5213 50.5005 96.896C50.6032 96.2613 50.7525 95.636 50.9485 95.02C51.1538 94.404 51.4058 93.8113 51.7045 93.242C52.0032 92.6633 52.3532 92.122 52.7545 91.618H54.5465ZM60.6816 95.622V97.008H58.1896V103H56.6076V97.008H54.1156V95.622H60.6816ZM63.1954 105.87H61.5994V95.622H63.1114L63.1954 96.672C63.4661 96.2893 63.8161 96 64.2454 95.804C64.6841 95.5987 65.1414 95.496 65.6174 95.496C66.1214 95.496 66.5741 95.5893 66.9754 95.776C67.3768 95.9533 67.7174 96.2053 67.9974 96.532C68.2868 96.8587 68.5014 97.2553 68.6414 97.722C68.7908 98.1793 68.8654 98.702 68.8654 99.29C68.8654 99.8407 68.7954 100.349 68.6554 100.816C68.5154 101.283 68.3054 101.689 68.0254 102.034C67.7548 102.37 67.4141 102.631 67.0034 102.818C66.6021 103.005 66.1121 103.098 65.5334 103.098C65.0854 103.098 64.6561 103.028 64.2454 102.888C63.8441 102.739 63.4941 102.496 63.1954 102.16V105.87ZM65.2814 101.712C65.6268 101.712 65.9254 101.651 66.1774 101.53C66.4294 101.399 66.6348 101.227 66.7934 101.012C66.9614 100.797 67.0828 100.545 67.1574 100.256C67.2414 99.9667 67.2834 99.654 67.2834 99.318C67.2834 98.982 67.2414 98.6693 67.1574 98.38C67.0828 98.0813 66.9614 97.8247 66.7934 97.61C66.6348 97.3953 66.4248 97.2273 66.1634 97.106C65.9114 96.9847 65.6081 96.924 65.2534 96.924C64.9361 96.924 64.6421 96.9893 64.3714 97.12C64.1101 97.2507 63.8908 97.4233 63.7134 97.638C63.5361 97.8527 63.4008 98.1093 63.3074 98.408C63.2234 98.6973 63.1814 98.996 63.1814 99.304C63.1814 99.64 63.2234 99.9573 63.3074 100.256C63.3914 100.545 63.5174 100.797 63.6854 101.012C63.8628 101.217 64.0821 101.385 64.3434 101.516C64.6048 101.647 64.9174 101.712 65.2814 101.712ZM71.5834 99.85C71.6021 100.121 71.6581 100.373 71.7514 100.606C71.8447 100.839 71.9707 101.045 72.1294 101.222C72.2881 101.39 72.4841 101.525 72.7174 101.628C72.9601 101.731 73.2401 101.782 73.5574 101.782C73.8934 101.782 74.2014 101.721 74.4814 101.6C74.7707 101.479 74.9807 101.269 75.1114 100.97H76.7494C76.6561 101.343 76.5021 101.665 76.2874 101.936C76.0821 102.207 75.8347 102.431 75.5454 102.608C75.2654 102.776 74.9527 102.902 74.6074 102.986C74.2714 103.061 73.9121 103.098 73.5294 103.098C72.9414 103.098 72.4234 103.009 71.9754 102.832C71.5367 102.655 71.1681 102.398 70.8694 102.062C70.5707 101.726 70.3467 101.329 70.1974 100.872C70.0574 100.405 69.9874 99.8827 69.9874 99.304C69.9874 98.744 70.0667 98.2353 70.2254 97.778C70.3841 97.3113 70.6127 96.91 70.9114 96.574C71.2194 96.238 71.5881 95.9767 72.0174 95.79C72.4467 95.594 72.9367 95.496 73.4874 95.496C74.0661 95.496 74.5654 95.594 74.9854 95.79C75.4054 95.9767 75.7554 96.2333 76.0354 96.56C76.3247 96.8867 76.5394 97.2693 76.6794 97.708C76.8194 98.1467 76.8894 98.6227 76.8894 99.136C76.8894 99.3787 76.8754 99.6167 76.8474 99.85H71.5834ZM75.3354 98.646C75.3074 98.0673 75.1254 97.6287 74.7894 97.33C74.4627 97.0313 74.0334 96.882 73.5014 96.882C73.2027 96.882 72.9414 96.9287 72.7174 97.022C72.4934 97.1153 72.3021 97.2413 72.1434 97.4C71.9941 97.5587 71.8727 97.7453 71.7794 97.96C71.6861 98.1747 71.6254 98.4033 71.5974 98.646H75.3354ZM79.7305 97.148C80.0292 96.7747 80.4025 96.5087 80.8505 96.35C81.2985 96.182 81.7512 96.098 82.2085 96.098C82.7125 96.098 83.1605 96.1773 83.5525 96.336C83.9539 96.4947 84.2945 96.7187 84.5745 97.008C84.8545 97.2973 85.0692 97.6473 85.2185 98.058C85.3679 98.4593 85.4425 98.912 85.4425 99.416C85.4425 99.9573 85.3585 100.457 85.1905 100.914C85.0319 101.371 84.7939 101.763 84.4765 102.09C84.1685 102.407 83.7905 102.655 83.3425 102.832C82.9039 103.009 82.4045 103.098 81.8445 103.098C81.1072 103.089 80.5005 102.939 80.0245 102.65C79.5579 102.361 79.1892 101.987 78.9185 101.53C78.6479 101.073 78.4612 100.559 78.3585 99.99C78.2559 99.4113 78.2045 98.828 78.2045 98.24C78.2045 97.652 78.2465 97.05 78.3305 96.434C78.4239 95.818 78.6059 95.272 78.8765 94.796C79.1005 94.4227 79.3572 94.1287 79.6465 93.914C79.9452 93.69 80.2719 93.522 80.6265 93.41C80.9812 93.2887 81.3592 93.2 81.7605 93.144C82.1619 93.088 82.5772 93.032 83.0065 92.976C83.3332 92.9387 83.6645 92.9013 84.0005 92.864C84.3459 92.8267 84.6819 92.752 85.0085 92.64V94.166C84.8405 94.2407 84.6072 94.3013 84.3085 94.348C84.0099 94.3853 83.6925 94.4227 83.3565 94.46C83.0205 94.488 82.6892 94.5207 82.3625 94.558C82.0359 94.586 81.7465 94.6187 81.4945 94.656C81.1959 94.7027 80.9299 94.8053 80.6965 94.964C80.4725 95.1133 80.2905 95.3 80.1505 95.524C80.0105 95.7387 79.9079 95.9907 79.8425 96.28C79.7772 96.56 79.7399 96.8493 79.7305 97.148ZM81.8865 101.712C82.2039 101.712 82.4839 101.651 82.7265 101.53C82.9785 101.409 83.1885 101.255 83.3565 101.068C83.5245 100.872 83.6505 100.648 83.7345 100.396C83.8185 100.135 83.8605 99.864 83.8605 99.584C83.8605 99.2947 83.8139 99.024 83.7205 98.772C83.6365 98.5107 83.5105 98.2913 83.3425 98.114C83.1839 97.9273 82.9879 97.7827 82.7545 97.68C82.5212 97.5773 82.2552 97.526 81.9565 97.526C81.6485 97.526 81.3685 97.5773 81.1165 97.68C80.8739 97.7733 80.6639 97.9133 80.4865 98.1C80.3185 98.2773 80.1832 98.492 80.0805 98.744C79.9779 98.996 79.9219 99.2667 79.9125 99.556C79.9125 99.836 79.9499 100.107 80.0245 100.368C80.0992 100.62 80.2159 100.844 80.3745 101.04C80.5425 101.236 80.7479 101.399 80.9905 101.53C81.2425 101.651 81.5412 101.712 81.8865 101.712ZM92.1297 95.622H93.8797L91.7517 101.824C91.4811 102.589 91.2337 103.266 91.0097 103.854C90.7951 104.442 90.5384 104.932 90.2397 105.324C89.9411 105.716 89.5724 106.01 89.1337 106.206C88.7044 106.411 88.1397 106.514 87.4397 106.514H87.2017V105.086C87.2391 105.086 87.2764 105.086 87.3137 105.086C87.5937 105.086 87.8411 105.053 88.0557 104.988C88.2797 104.923 88.4804 104.825 88.6577 104.694C88.8351 104.563 88.9891 104.391 89.1197 104.176C89.2504 103.971 89.3717 103.733 89.4837 103.462L86.1377 95.622H88.0137L90.3097 101.46L92.1297 95.622ZM100.981 95.496C101.569 95.496 102.083 95.5893 102.521 95.776C102.96 95.9627 103.329 96.224 103.627 96.56C103.935 96.896 104.164 97.2973 104.313 97.764C104.472 98.2307 104.551 98.7487 104.551 99.318C104.551 99.8967 104.477 100.419 104.327 100.886C104.178 101.343 103.954 101.74 103.655 102.076C103.357 102.403 102.983 102.655 102.535 102.832C102.097 103.009 101.579 103.098 100.981 103.098C99.9174 103.098 99.1008 102.823 98.5314 102.272C97.9621 101.712 97.6261 100.956 97.5234 100.004H96.4454V103H94.8494V95.622H96.4454V98.618H97.5234C97.6354 97.6753 97.9761 96.9193 98.5454 96.35C99.1148 95.7807 99.9268 95.496 100.981 95.496ZM100.981 101.712C101.336 101.712 101.639 101.651 101.891 101.53C102.143 101.399 102.349 101.231 102.507 101.026C102.675 100.811 102.797 100.564 102.871 100.284C102.946 99.9947 102.983 99.682 102.983 99.346C102.983 99.01 102.946 98.6927 102.871 98.394C102.797 98.0953 102.68 97.8387 102.521 97.624C102.363 97.4093 102.157 97.2413 101.905 97.12C101.653 96.9893 101.345 96.924 100.981 96.924C100.627 96.924 100.323 96.9893 100.071 97.12C99.8194 97.2413 99.6141 97.4093 99.4554 97.624C99.2968 97.8387 99.1801 98.0953 99.1054 98.394C99.0401 98.6927 99.0074 99.01 99.0074 99.346C99.0074 99.682 99.0448 99.9947 99.1194 100.284C99.1941 100.564 99.3108 100.811 99.4694 101.026C99.6281 101.231 99.8288 101.399 100.071 101.53C100.323 101.651 100.627 101.712 100.981 101.712ZM105.951 95.622H107.547V101.642H110.011V95.622H111.593V101.642H114.071V95.622H115.667V101.642H116.647V105.156H115.107V103H105.951V95.622ZM119.234 103H117.75V95.622H119.346V100.69L123.098 95.622H124.54V103H122.944V98.03C122.935 98.0487 121.698 99.7053 119.234 103ZM127.597 99.85C127.616 100.121 127.672 100.373 127.765 100.606C127.858 100.839 127.984 101.045 128.143 101.222C128.302 101.39 128.498 101.525 128.731 101.628C128.974 101.731 129.254 101.782 129.571 101.782C129.907 101.782 130.215 101.721 130.495 101.6C130.784 101.479 130.994 101.269 131.125 100.97H132.763C132.67 101.343 132.516 101.665 132.301 101.936C132.096 102.207 131.848 102.431 131.559 102.608C131.279 102.776 130.966 102.902 130.621 102.986C130.285 103.061 129.926 103.098 129.543 103.098C128.955 103.098 128.437 103.009 127.989 102.832C127.55 102.655 127.182 102.398 126.883 102.062C126.584 101.726 126.36 101.329 126.211 100.872C126.071 100.405 126.001 99.8827 126.001 99.304C126.001 98.744 126.08 98.2353 126.239 97.778C126.398 97.3113 126.626 96.91 126.925 96.574C127.233 96.238 127.602 95.9767 128.031 95.79C128.46 95.594 128.95 95.496 129.501 95.496C130.08 95.496 130.579 95.594 130.999 95.79C131.419 95.9767 131.769 96.2333 132.049 96.56C132.338 96.8867 132.553 97.2693 132.693 97.708C132.833 98.1467 132.903 98.6227 132.903 99.136C132.903 99.3787 132.889 99.6167 132.861 99.85H127.597ZM131.349 98.646C131.321 98.0673 131.139 97.6287 130.803 97.33C130.476 97.0313 130.047 96.882 129.515 96.882C129.216 96.882 128.955 96.9287 128.731 97.022C128.507 97.1153 128.316 97.2413 128.157 97.4C128.008 97.5587 127.886 97.7453 127.793 97.96C127.7 98.1747 127.639 98.4033 127.611 98.646H131.349ZM58.5625 116.254C58.5905 115.806 58.6092 115.372 58.6185 114.952C58.6278 114.523 58.6325 114.079 58.6325 113.622H64.3165V119.642H65.2825V123.156H63.7285V121H58.6885V123.156H57.1345V119.642C57.4052 119.642 57.6292 119.558 57.8065 119.39C57.9932 119.213 58.1192 119.017 58.1845 118.802C58.2498 118.653 58.3058 118.452 58.3525 118.2C58.3992 117.939 58.4365 117.682 58.4645 117.43C58.4925 117.178 58.5158 116.945 58.5345 116.73C58.5532 116.515 58.5625 116.357 58.5625 116.254ZM62.7205 115.008H60.0885C60.0698 115.344 60.0558 115.708 60.0465 116.1C60.0372 116.492 60.0232 116.87 60.0045 117.234C59.9858 117.411 59.9672 117.603 59.9485 117.808C59.9392 118.013 59.9158 118.223 59.8785 118.438C59.8412 118.643 59.7898 118.849 59.7245 119.054C59.6592 119.259 59.5705 119.455 59.4585 119.642H62.7205V115.008ZM67.7074 117.85C67.7261 118.121 67.7821 118.373 67.8754 118.606C67.9688 118.839 68.0948 119.045 68.2534 119.222C68.4121 119.39 68.6081 119.525 68.8414 119.628C69.0841 119.731 69.3641 119.782 69.6814 119.782C70.0174 119.782 70.3254 119.721 70.6054 119.6C70.8948 119.479 71.1048 119.269 71.2354 118.97H72.8734C72.7801 119.343 72.6261 119.665 72.4114 119.936C72.2061 120.207 71.9588 120.431 71.6694 120.608C71.3894 120.776 71.0768 120.902 70.7314 120.986C70.3954 121.061 70.0361 121.098 69.6534 121.098C69.0654 121.098 68.5474 121.009 68.0994 120.832C67.6608 120.655 67.2921 120.398 66.9934 120.062C66.6948 119.726 66.4708 119.329 66.3214 118.872C66.1814 118.405 66.1114 117.883 66.1114 117.304C66.1114 116.744 66.1908 116.235 66.3494 115.778C66.5081 115.311 66.7368 114.91 67.0354 114.574C67.3434 114.238 67.7121 113.977 68.1414 113.79C68.5708 113.594 69.0608 113.496 69.6114 113.496C70.1901 113.496 70.6894 113.594 71.1094 113.79C71.5294 113.977 71.8794 114.233 72.1594 114.56C72.4488 114.887 72.6634 115.269 72.8034 115.708C72.9434 116.147 73.0134 116.623 73.0134 117.136C73.0134 117.379 72.9994 117.617 72.9714 117.85H67.7074ZM71.4594 116.646C71.4314 116.067 71.2494 115.629 70.9134 115.33C70.5868 115.031 70.1574 114.882 69.6254 114.882C69.3268 114.882 69.0654 114.929 68.8414 115.022C68.6174 115.115 68.4261 115.241 68.2674 115.4C68.1181 115.559 67.9968 115.745 67.9034 115.96C67.8101 116.175 67.7494 116.403 67.7214 116.646H71.4594ZM77.9718 111.648C78.2985 111.648 78.5692 111.573 78.7838 111.424C78.9985 111.275 79.1198 111.037 79.1478 110.71H80.5478C80.4825 111.438 80.2212 111.97 79.7638 112.306C79.3158 112.642 78.7185 112.81 77.9718 112.81C77.2065 112.81 76.5952 112.642 76.1378 112.306C75.6898 111.97 75.4378 111.438 75.3818 110.71H76.7818C76.8192 111.037 76.9405 111.275 77.1458 111.424C77.3605 111.573 77.6358 111.648 77.9718 111.648ZM75.9418 121H74.4578V113.622H76.0538V118.69L79.8058 113.622H81.2478V121H79.6518V116.044C79.6425 116.063 78.4058 117.715 75.9418 121ZM86.2371 121.098C85.6491 121.098 85.1311 121.009 84.6831 120.832C84.2444 120.645 83.8758 120.389 83.5771 120.062C83.2878 119.726 83.0684 119.329 82.9191 118.872C82.7791 118.405 82.7091 117.892 82.7091 117.332C82.7091 116.772 82.7838 116.259 82.9331 115.792C83.0918 115.325 83.3251 114.924 83.6331 114.588C83.9411 114.252 84.3144 113.986 84.7531 113.79C85.1918 113.594 85.7004 113.496 86.2791 113.496C86.6898 113.496 87.0678 113.543 87.4131 113.636C87.7678 113.72 88.0804 113.865 88.3511 114.07C88.6218 114.266 88.8551 114.518 89.0511 114.826C89.2471 115.125 89.3824 115.489 89.4571 115.918H87.8051C87.7211 115.601 87.5391 115.358 87.2591 115.19C86.9884 115.013 86.6524 114.924 86.2511 114.924C85.8964 114.924 85.5931 114.989 85.3411 115.12C85.0891 115.251 84.8838 115.428 84.7251 115.652C84.5664 115.876 84.4498 116.137 84.3751 116.436C84.3098 116.725 84.2771 117.029 84.2771 117.346C84.2771 117.673 84.3144 117.981 84.3891 118.27C84.4638 118.559 84.5804 118.811 84.7391 119.026C84.9071 119.231 85.1171 119.399 85.3691 119.53C85.6211 119.651 85.9244 119.712 86.2791 119.712C86.6991 119.712 87.0444 119.619 87.3151 119.432C87.5951 119.245 87.7724 118.998 87.8471 118.69H89.4851C89.4104 119.11 89.2704 119.474 89.0651 119.782C88.8691 120.09 88.6264 120.342 88.3371 120.538C88.0478 120.734 87.7258 120.879 87.3711 120.972C87.0164 121.056 86.6384 121.098 86.2371 121.098ZM96.6044 113.622V115.008H94.1124V121H92.5304V115.008H90.0384V113.622H96.6044ZM97.5223 113.622H100.672C100.999 113.622 101.33 113.641 101.666 113.678C102.002 113.706 102.306 113.785 102.576 113.916C102.856 114.047 103.08 114.238 103.248 114.49C103.426 114.733 103.519 115.064 103.528 115.484C103.528 115.811 103.454 116.114 103.304 116.394C103.155 116.674 102.917 116.903 102.59 117.08C103.038 117.201 103.365 117.416 103.57 117.724C103.785 118.023 103.892 118.382 103.892 118.802C103.892 119.194 103.813 119.535 103.654 119.824C103.496 120.104 103.286 120.333 103.024 120.51C102.763 120.678 102.46 120.804 102.114 120.888C101.769 120.963 101.405 121 101.022 121H97.5223V113.622ZM99.1323 114.952V116.646H100.098C100.313 116.646 100.532 116.646 100.756 116.646C100.99 116.637 101.195 116.604 101.372 116.548C101.559 116.492 101.708 116.403 101.82 116.282C101.942 116.161 102.002 115.988 102.002 115.764C102.002 115.568 101.956 115.419 101.862 115.316C101.778 115.204 101.671 115.12 101.54 115.064C101.41 115.008 101.26 114.975 101.092 114.966C100.934 114.957 100.784 114.952 100.644 114.952H99.1323ZM100.756 119.656C100.943 119.656 101.125 119.647 101.302 119.628C101.489 119.609 101.652 119.567 101.792 119.502C101.942 119.427 102.063 119.334 102.156 119.222C102.25 119.101 102.296 118.942 102.296 118.746C102.296 118.391 102.184 118.153 101.96 118.032C101.746 117.911 101.48 117.85 101.162 117.85H99.1323V119.656H100.756ZM106.854 121H105.37V113.622H106.966V118.69L110.718 113.622H112.16V121H110.564V116.03C110.555 116.049 109.318 117.705 106.854 121ZM117.415 111.648C117.742 111.648 118.013 111.573 118.227 111.424C118.442 111.275 118.563 111.037 118.591 110.71H119.991C119.926 111.438 119.665 111.97 119.207 112.306C118.759 112.642 118.162 112.81 117.415 112.81C116.65 112.81 116.039 112.642 115.581 112.306C115.133 111.97 114.881 111.438 114.825 110.71H116.225C116.263 111.037 116.384 111.275 116.589 111.424C116.804 111.573 117.079 111.648 117.415 111.648ZM115.385 121H113.901V113.622H115.497V118.69L119.249 113.622H120.691V121H119.095V116.044C119.086 116.063 117.849 117.715 115.385 121ZM121.074 123.842C121.998 122.703 122.656 121.541 123.048 120.356C123.44 119.161 123.646 117.953 123.664 116.73C123.646 115.498 123.44 114.289 123.048 113.104C122.656 111.919 122.003 110.757 121.088 109.618H122.866C123.268 110.122 123.618 110.663 123.916 111.242C124.215 111.811 124.462 112.404 124.658 113.02C124.864 113.627 125.013 114.247 125.106 114.882C125.209 115.507 125.26 116.123 125.26 116.73C125.26 117.337 125.209 117.957 125.106 118.592C125.004 119.217 124.85 119.838 124.644 120.454C124.448 121.061 124.201 121.649 123.902 122.218C123.604 122.797 123.254 123.338 122.852 123.842H121.074Z" fill="white" fill-opacity="0.5"/>
<circle cx="162.58" cy="57.589" r="20.3" transform="rotate(86.9403 162.58 57.589)" fill="#9532F8"/>
<circle cx="131.802" cy="33.1012" r="32.9875" transform="rotate(86.9403 131.802 33.1012)" fill="#8221E3" fill-opacity="0.6"/>
<circle cx="81.6391" cy="167.037" r="10.8355" transform="rotate(-85.4295 81.6391 167.037)" fill="#9532F8"/>
</svg>
