<svg width="145" height="145" viewBox="0 0 145 145" fill="none" xmlns="http://www.w3.org/2000/svg">
<rect width="145" height="145" rx="72.5" fill="#410DAE"/>
<path d="M69.368 58.52C69.224 57.928 68.92 57.504 68.456 57.248C67.992 56.992 67.48 56.872 66.92 56.888C66.344 56.904 65.832 57.048 65.384 57.32C64.936 57.592 64.56 57.944 64.256 58.376C63.968 58.808 63.744 59.296 63.584 59.84C63.44 60.368 63.376 60.904 63.392 61.448C63.904 60.936 64.488 60.552 65.144 60.296C65.816 60.04 66.512 59.912 67.232 59.912C68.976 59.928 70.32 60.424 71.264 61.4C72.224 62.376 72.712 63.72 72.728 65.432C72.728 66.296 72.552 67.096 72.2 67.832C71.848 68.568 71.4 69.176 70.856 69.656C70.296 70.152 69.648 70.528 68.912 70.784C68.176 71.04 67.376 71.152 66.512 71.12C65.328 71.104 64.328 70.856 63.512 70.376C62.696 69.896 62.032 69.272 61.52 68.504C61.024 67.736 60.664 66.864 60.44 65.888C60.232 64.912 60.128 63.912 60.128 62.888C60.112 61.656 60.256 60.424 60.56 59.192C60.88 57.96 61.408 56.912 62.144 56.048C62.672 55.376 63.328 54.84 64.112 54.44C64.912 54.04 65.848 53.832 66.92 53.816C67.736 53.8 68.488 53.896 69.176 54.104C69.864 54.296 70.464 54.608 70.976 55.04C71.456 55.424 71.848 55.904 72.152 56.48C72.472 57.056 72.672 57.736 72.752 58.52H69.368ZM66.536 68.072C66.92 68.088 67.28 68.04 67.616 67.928C67.952 67.816 68.24 67.656 68.48 67.448C68.72 67.224 68.912 66.96 69.056 66.656C69.2 66.336 69.28 65.992 69.296 65.624C69.328 64.76 69.096 64.088 68.6 63.608C68.104 63.112 67.44 62.872 66.608 62.888C65.888 62.904 65.28 63.12 64.784 63.536C64.304 63.936 64.032 64.496 63.968 65.216C63.936 65.584 63.968 65.936 64.064 66.272C64.176 66.608 64.344 66.912 64.568 67.184C64.792 67.44 65.064 67.648 65.384 67.808C65.72 67.968 66.104 68.056 66.536 68.072ZM75.3976 71L81.6376 57.104H73.7656V54.008H85.5976V56.6L79.2856 71H75.3976Z" fill="white" fill-opacity="0.7"/>
<path d="M20.616 93.098C20.028 93.098 19.51 93.0093 19.062 92.832C18.6233 92.6453 18.2547 92.3887 17.956 92.062C17.6667 91.726 17.4473 91.3293 17.298 90.872C17.158 90.4053 17.088 89.892 17.088 89.332C17.088 88.772 17.1627 88.2587 17.312 87.792C17.4707 87.3253 17.704 86.924 18.012 86.588C18.32 86.252 18.6933 85.986 19.132 85.79C19.5707 85.594 20.0793 85.496 20.658 85.496C21.0687 85.496 21.4467 85.5427 21.792 85.636C22.1467 85.72 22.4593 85.8647 22.73 86.07C23.0007 86.266 23.234 86.518 23.43 86.826C23.626 87.1247 23.7613 87.4887 23.836 87.918H22.184C22.1 87.6007 21.918 87.358 21.638 87.19C21.3673 87.0127 21.0313 86.924 20.63 86.924C20.2753 86.924 19.972 86.9893 19.72 87.12C19.468 87.2507 19.2627 87.428 19.104 87.652C18.9453 87.876 18.8287 88.1373 18.754 88.436C18.6887 88.7253 18.656 89.0287 18.656 89.346C18.656 89.6727 18.6933 89.9807 18.768 90.27C18.8427 90.5593 18.9593 90.8113 19.118 91.026C19.286 91.2313 19.496 91.3993 19.748 91.53C20 91.6513 20.3033 91.712 20.658 91.712C21.078 91.712 21.4233 91.6187 21.694 91.432C21.974 91.2453 22.1513 90.998 22.226 90.69H23.864C23.7893 91.11 23.6493 91.474 23.444 91.782C23.248 92.09 23.0053 92.342 22.716 92.538C22.4267 92.734 22.1047 92.8787 21.75 92.972C21.3953 93.056 21.0173 93.098 20.616 93.098ZM25.847 89.486C25.8936 88.8513 25.9216 88.2213 25.931 87.596C25.9496 86.9613 25.9683 86.3033 25.987 85.622H31.503V93H29.893V87.008H27.471C27.4523 87.4653 27.4336 87.9227 27.415 88.38C27.4056 88.828 27.387 89.276 27.359 89.724C27.3496 89.892 27.331 90.0927 27.303 90.326C27.2843 90.55 27.2563 90.7787 27.219 91.012C27.1816 91.236 27.1256 91.4507 27.051 91.656C26.9763 91.852 26.883 92.034 26.771 92.202C26.575 92.482 26.3136 92.6873 25.987 92.818C25.6696 92.9393 25.301 93 24.881 93H24.489V91.628C24.769 91.628 24.993 91.5627 25.161 91.432C25.3383 91.292 25.469 91.1193 25.553 90.914C25.6463 90.6993 25.7116 90.4707 25.749 90.228C25.7956 89.976 25.8283 89.7287 25.847 89.486ZM36.559 85.496C37.147 85.496 37.665 85.5893 38.113 85.776C38.561 85.9627 38.939 86.224 39.247 86.56C39.5644 86.8867 39.8024 87.2833 39.961 87.75C40.1197 88.2167 40.199 88.7347 40.199 89.304C40.199 89.8827 40.1197 90.4053 39.961 90.872C39.8117 91.3293 39.583 91.726 39.275 92.062C38.967 92.398 38.5844 92.6547 38.127 92.832C37.679 93.0093 37.1564 93.098 36.559 93.098C35.971 93.098 35.453 93.0093 35.005 92.832C34.557 92.6453 34.179 92.3887 33.871 92.062C33.5724 91.726 33.3437 91.3247 33.185 90.858C33.0357 90.3913 32.961 89.8733 32.961 89.304C32.961 88.7347 33.0357 88.2167 33.185 87.75C33.3437 87.2833 33.577 86.8867 33.885 86.56C34.193 86.224 34.571 85.9627 35.019 85.776C35.467 85.5893 35.9804 85.496 36.559 85.496ZM36.559 91.712C36.923 91.712 37.231 91.6513 37.483 91.53C37.7444 91.3993 37.9544 91.2267 38.113 91.012C38.281 90.7973 38.4024 90.5453 38.477 90.256C38.561 89.9667 38.603 89.654 38.603 89.318C38.603 88.982 38.561 88.6693 38.477 88.38C38.4024 88.0813 38.281 87.8247 38.113 87.61C37.9544 87.3953 37.7444 87.2273 37.483 87.106C37.231 86.9847 36.923 86.924 36.559 86.924C36.2044 86.924 35.8964 86.9847 35.635 87.106C35.383 87.2273 35.173 87.3953 35.005 87.61C34.8464 87.8247 34.725 88.0813 34.641 88.38C34.5664 88.6693 34.529 88.982 34.529 89.318C34.529 89.654 34.5664 89.9667 34.641 90.256C34.725 90.5453 34.8464 90.7973 35.005 91.012C35.173 91.2267 35.383 91.3993 35.635 91.53C35.8964 91.6513 36.2044 91.712 36.559 91.712ZM41.6493 85.622H44.7993C45.1259 85.622 45.4573 85.6407 45.7933 85.678C46.1293 85.706 46.4326 85.7853 46.7033 85.916C46.9833 86.0467 47.2073 86.238 47.3753 86.49C47.5526 86.7327 47.6459 87.064 47.6553 87.484C47.6553 87.8107 47.5806 88.114 47.4313 88.394C47.2819 88.674 47.0439 88.9027 46.7173 89.08C47.1653 89.2013 47.4919 89.416 47.6973 89.724C47.9119 90.0227 48.0193 90.382 48.0193 90.802C48.0193 91.194 47.9399 91.5347 47.7812 91.824C47.6226 92.104 47.4126 92.3327 47.1513 92.51C46.8899 92.678 46.5866 92.804 46.2413 92.888C45.8959 92.9627 45.5319 93 45.1493 93H41.6493V85.622ZM43.2593 86.952V88.646H44.2253C44.4399 88.646 44.6593 88.646 44.8833 88.646C45.1166 88.6367 45.3219 88.604 45.4993 88.548C45.6859 88.492 45.8353 88.4033 45.9473 88.282C46.0686 88.1607 46.1293 87.988 46.1293 87.764C46.1293 87.568 46.0826 87.4187 45.9893 87.316C45.9053 87.204 45.7979 87.12 45.6673 87.064C45.5366 87.008 45.3873 86.9753 45.2193 86.966C45.0606 86.9567 44.9113 86.952 44.7713 86.952H43.2593ZM44.8833 91.656C45.0699 91.656 45.2519 91.6467 45.4293 91.628C45.6159 91.6093 45.7793 91.5673 45.9193 91.502C46.0686 91.4273 46.1899 91.334 46.2833 91.222C46.3766 91.1007 46.4233 90.942 46.4233 90.746C46.4233 90.3913 46.3113 90.1533 46.0873 90.032C45.8726 89.9107 45.6066 89.85 45.2893 89.85H43.2593V91.656H44.8833ZM54.2569 92.09C54.0142 92.4353 53.6922 92.692 53.2909 92.86C52.8896 93.0187 52.4416 93.098 51.9469 93.098C51.5549 93.098 51.1956 93.0513 50.8689 92.958C50.5516 92.8647 50.2716 92.7247 50.0289 92.538C49.7862 92.342 49.5949 92.104 49.4549 91.824C49.3149 91.5347 49.2449 91.208 49.2449 90.844C49.2449 90.4427 49.3242 90.102 49.4829 89.822C49.6416 89.5327 49.8562 89.2993 50.1269 89.122C50.4069 88.9447 50.7336 88.814 51.1069 88.73C51.4802 88.6367 51.8722 88.59 52.2829 88.59H54.1729C54.1729 88.0487 54.0516 87.6287 53.8089 87.33C53.5662 87.0313 53.1416 86.8773 52.5349 86.868C52.1802 86.868 51.8722 86.9287 51.6109 87.05C51.3589 87.1713 51.1909 87.372 51.1069 87.652H49.4689C49.5249 87.26 49.6509 86.9287 49.8469 86.658C50.0522 86.3873 50.2949 86.1633 50.5749 85.986C50.8642 85.8087 51.1816 85.6827 51.5269 85.608C51.8816 85.5333 52.2362 85.496 52.5909 85.496C53.0482 85.496 53.4729 85.5567 53.8649 85.678C54.2569 85.7993 54.5976 86.0047 54.8869 86.294C55.2136 86.63 55.4329 87.0313 55.5449 87.498C55.6569 87.9647 55.7129 88.4733 55.7129 89.024V93H54.3269L54.2569 92.09ZM54.1729 89.724H52.6329C52.3622 89.724 52.0916 89.7473 51.8209 89.794C51.5502 89.8313 51.3169 89.9293 51.1209 90.088C50.9342 90.2373 50.8409 90.4567 50.8409 90.746C50.8409 91.1007 50.9669 91.3713 51.2189 91.558C51.4802 91.7353 51.7976 91.824 52.1709 91.824C52.4602 91.824 52.7262 91.7867 52.9689 91.712C53.2209 91.6373 53.4356 91.516 53.6129 91.348C53.7902 91.1707 53.9256 90.9513 54.0189 90.69C54.1216 90.4193 54.1729 90.0973 54.1729 89.724ZM57.5246 88.31H61.9906V89.682H57.5246V88.31ZM63.825 93V85.622H70.293V93H68.697V87.008H65.421V93H63.825ZM76.7882 92.09C76.5455 92.4353 76.2235 92.692 75.8222 92.86C75.4208 93.0187 74.9728 93.098 74.4782 93.098C74.0862 93.098 73.7268 93.0513 73.4002 92.958C73.0828 92.8647 72.8028 92.7247 72.5602 92.538C72.3175 92.342 72.1262 92.104 71.9862 91.824C71.8462 91.5347 71.7762 91.208 71.7762 90.844C71.7762 90.4427 71.8555 90.102 72.0142 89.822C72.1728 89.5327 72.3875 89.2993 72.6582 89.122C72.9382 88.9447 73.2648 88.814 73.6382 88.73C74.0115 88.6367 74.4035 88.59 74.8142 88.59H76.7042C76.7042 88.0487 76.5828 87.6287 76.3402 87.33C76.0975 87.0313 75.6728 86.8773 75.0662 86.868C74.7115 86.868 74.4035 86.9287 74.1422 87.05C73.8902 87.1713 73.7222 87.372 73.6382 87.652H72.0002C72.0562 87.26 72.1822 86.9287 72.3782 86.658C72.5835 86.3873 72.8262 86.1633 73.1062 85.986C73.3955 85.8087 73.7128 85.6827 74.0582 85.608C74.4128 85.5333 74.7675 85.496 75.1222 85.496C75.5795 85.496 76.0042 85.5567 76.3962 85.678C76.7882 85.7993 77.1288 86.0047 77.4182 86.294C77.7448 86.63 77.9642 87.0313 78.0762 87.498C78.1882 87.9647 78.2442 88.4733 78.2442 89.024V93H76.8582L76.7882 92.09ZM76.7042 89.724H75.1642C74.8935 89.724 74.6228 89.7473 74.3522 89.794C74.0815 89.8313 73.8482 89.9293 73.6522 90.088C73.4655 90.2373 73.3722 90.4567 73.3722 90.746C73.3722 91.1007 73.4982 91.3713 73.7502 91.558C74.0115 91.7353 74.3288 91.824 74.7022 91.824C74.9915 91.824 75.2575 91.7867 75.5002 91.712C75.7522 91.6373 75.9668 91.516 76.1442 91.348C76.3215 91.1707 76.4568 90.9513 76.5502 90.69C76.6528 90.4193 76.7042 90.0973 76.7042 89.724ZM81.5538 95.87H79.9578V85.622H81.4698L81.5538 86.672C81.8245 86.2893 82.1745 86 82.6038 85.804C83.0425 85.5987 83.4998 85.496 83.9758 85.496C84.4798 85.496 84.9325 85.5893 85.3338 85.776C85.7352 85.9533 86.0758 86.2053 86.3558 86.532C86.6452 86.8587 86.8598 87.2553 86.9998 87.722C87.1492 88.1793 87.2238 88.702 87.2238 89.29C87.2238 89.8407 87.1538 90.3493 87.0138 90.816C86.8738 91.2827 86.6638 91.6887 86.3838 92.034C86.1132 92.37 85.7725 92.6313 85.3618 92.818C84.9605 93.0047 84.4705 93.098 83.8918 93.098C83.4438 93.098 83.0145 93.028 82.6038 92.888C82.2025 92.7387 81.8525 92.496 81.5538 92.16V95.87ZM83.6398 91.712C83.9852 91.712 84.2838 91.6513 84.5358 91.53C84.7878 91.3993 84.9932 91.2267 85.1518 91.012C85.3198 90.7973 85.4412 90.5453 85.5158 90.256C85.5998 89.9667 85.6418 89.654 85.6418 89.318C85.6418 88.982 85.5998 88.6693 85.5158 88.38C85.4412 88.0813 85.3198 87.8247 85.1518 87.61C84.9932 87.3953 84.7832 87.2273 84.5218 87.106C84.2698 86.9847 83.9665 86.924 83.6118 86.924C83.2945 86.924 83.0005 86.9893 82.7298 87.12C82.4685 87.2507 82.2492 87.4233 82.0718 87.638C81.8945 87.8527 81.7592 88.1093 81.6658 88.408C81.5818 88.6973 81.5398 88.996 81.5398 89.304C81.5398 89.64 81.5818 89.9573 81.6658 90.256C81.7498 90.5453 81.8758 90.7973 82.0438 91.012C82.2212 91.2173 82.4405 91.3853 82.7018 91.516C82.9632 91.6467 83.2758 91.712 83.6398 91.712ZM93.3858 92.09C93.1431 92.4353 92.8211 92.692 92.4198 92.86C92.0185 93.0187 91.5705 93.098 91.0758 93.098C90.6838 93.098 90.3245 93.0513 89.9978 92.958C89.6805 92.8647 89.4005 92.7247 89.1578 92.538C88.9151 92.342 88.7238 92.104 88.5838 91.824C88.4438 91.5347 88.3738 91.208 88.3738 90.844C88.3738 90.4427 88.4531 90.102 88.6118 89.822C88.7705 89.5327 88.9851 89.2993 89.2558 89.122C89.5358 88.9447 89.8625 88.814 90.2358 88.73C90.6091 88.6367 91.0011 88.59 91.4118 88.59H93.3018C93.3018 88.0487 93.1805 87.6287 92.9378 87.33C92.6951 87.0313 92.2705 86.8773 91.6638 86.868C91.3091 86.868 91.0011 86.9287 90.7398 87.05C90.4878 87.1713 90.3198 87.372 90.2358 87.652H88.5978C88.6538 87.26 88.7798 86.9287 88.9758 86.658C89.1811 86.3873 89.4238 86.1633 89.7038 85.986C89.9931 85.8087 90.3105 85.6827 90.6558 85.608C91.0105 85.5333 91.3651 85.496 91.7198 85.496C92.1771 85.496 92.6018 85.5567 92.9938 85.678C93.3858 85.7993 93.7265 86.0047 94.0158 86.294C94.3425 86.63 94.5618 87.0313 94.6738 87.498C94.7858 87.9647 94.8418 88.4733 94.8418 89.024V93H93.4558L93.3858 92.09ZM93.3018 89.724H91.7618C91.4911 89.724 91.2205 89.7473 90.9498 89.794C90.6791 89.8313 90.4458 89.9293 90.2498 90.088C90.0631 90.2373 89.9698 90.4567 89.9698 90.746C89.9698 91.1007 90.0958 91.3713 90.3478 91.558C90.6091 91.7353 90.9265 91.824 91.2998 91.824C91.5891 91.824 91.8551 91.7867 92.0978 91.712C92.3498 91.6373 92.5645 91.516 92.7418 91.348C92.9191 91.1707 93.0545 90.9513 93.1478 90.69C93.2505 90.4193 93.3018 90.0973 93.3018 89.724ZM101.4 89.052C101.792 89.1827 102.081 89.3973 102.268 89.696C102.454 89.9853 102.548 90.312 102.548 90.676C102.548 90.6947 102.548 90.7133 102.548 90.732C102.548 91.1987 102.454 91.586 102.268 91.894C102.081 92.202 101.829 92.4493 101.512 92.636C101.204 92.8133 100.868 92.9347 100.504 93C100.149 93.0653 99.7848 93.098 99.4115 93.098C99.0475 93.098 98.6742 93.0653 98.2915 93C97.9182 92.9253 97.5728 92.7993 97.2555 92.622C96.9475 92.4447 96.6908 92.2113 96.4855 91.922C96.2802 91.6327 96.1635 91.2687 96.1355 90.83H97.6755C97.7128 91.0167 97.7922 91.1707 97.9135 91.292C98.0442 91.4133 98.1935 91.5113 98.3615 91.586C98.5295 91.6607 98.7068 91.712 98.8935 91.74C99.0802 91.768 99.2528 91.782 99.4115 91.782C99.5795 91.782 99.7615 91.7727 99.9575 91.754C100.154 91.726 100.326 91.6793 100.476 91.614C100.634 91.5393 100.765 91.4413 100.868 91.32C100.97 91.1893 101.022 91.0213 101.022 90.816C101.022 90.4613 100.886 90.2233 100.616 90.102C100.354 89.9807 100.023 89.92 99.6215 89.92H98.3895V88.66H99.4955C99.8408 88.66 100.135 88.59 100.378 88.45C100.62 88.31 100.742 88.0673 100.742 87.722C100.742 87.5447 100.695 87.4 100.602 87.288C100.518 87.1667 100.41 87.0733 100.28 87.008C100.149 86.9427 100.004 86.9007 99.8455 86.882C99.6868 86.854 99.5468 86.84 99.4255 86.84C99.2668 86.84 99.1035 86.854 98.9355 86.882C98.7675 86.9007 98.6088 86.9427 98.4595 87.008C98.3102 87.0733 98.1842 87.162 98.0815 87.274C97.9788 87.386 97.9182 87.5307 97.8995 87.708H96.3735C96.4108 87.2693 96.5275 86.91 96.7235 86.63C96.9195 86.3407 97.1622 86.112 97.4515 85.944C97.7408 85.776 98.0582 85.6593 98.4035 85.594C98.7582 85.5287 99.1082 85.496 99.4535 85.496C99.7988 85.496 100.135 85.5287 100.462 85.594C100.798 85.6593 101.106 85.7807 101.386 85.958C101.666 86.1353 101.88 86.35 102.03 86.602C102.188 86.8447 102.268 87.162 102.268 87.554C102.268 87.9087 102.184 88.212 102.016 88.464C101.857 88.716 101.652 88.912 101.4 89.052ZM105.45 93H103.966V85.622H105.562V90.69L109.314 85.622H110.756V93H109.16V88.03C109.15 88.0487 107.914 89.7053 105.45 93ZM118.251 85.622V87.008H115.759V93H114.177V87.008H111.685V85.622H118.251ZM119.169 85.622H120.779V88.114H122.109C122.519 88.114 122.902 88.1513 123.257 88.226C123.611 88.3007 123.915 88.4313 124.167 88.618C124.428 88.7953 124.633 89.0333 124.783 89.332C124.932 89.6307 125.007 90.004 125.007 90.452C125.007 90.956 124.913 91.376 124.727 91.712C124.54 92.0387 124.297 92.3 123.999 92.496C123.7 92.6827 123.364 92.8133 122.991 92.888C122.617 92.9627 122.249 93 121.885 93H119.169V85.622ZM125.959 93V85.622H127.541V93H125.959ZM121.745 91.67C121.95 91.67 122.155 91.656 122.361 91.628C122.566 91.5907 122.748 91.5347 122.907 91.46C123.065 91.376 123.191 91.2593 123.285 91.11C123.378 90.9607 123.425 90.7647 123.425 90.522C123.425 90.3167 123.387 90.1487 123.313 90.018C123.247 89.8873 123.154 89.7847 123.033 89.71C122.921 89.626 122.79 89.57 122.641 89.542C122.491 89.514 122.342 89.4953 122.193 89.486H120.779V91.656L121.745 91.67Z" fill="white"/>
</svg>
